<svg xmlns="http://www.w3.org/2000/svg" version="1.1" xmlns:xlink="http://www.w3.org/1999/xlink" xmlns:svgjs="http://svgjs.com/svgjs" width="1440" height="560" preserveAspectRatio="none" viewBox="0 0 1440 560"><g mask="url(&quot;#SvgjsMask1078&quot;)" fill="none"><path d="M507.5200610301727 192.77184375274499L329.56446798445654 131.30705383084313 358.1432765069394 293.38553103073554z" fill="rgba(28, 83, 142, 0.4)" class="triangle-float3"></path><path d="M905.6009846932801 320.5987679748881L834.530982521524 186.93553399824526 700.8677485448811 258.00553617000133 771.9377507166373 391.6687701466442z" fill="rgba(28, 83, 142, 0.4)" class="triangle-float1"></path><path d="M1469.92,733.962C1519.937,731.747,1571.005,717.888,1597.133,675.18C1624.293,630.785,1619.752,575.299,1594.99,529.523C1568.846,481.191,1524.867,440.616,1469.92,440.004C1414.104,439.382,1368.634,478.811,1339.926,526.682C1310.206,576.241,1290.865,638.428,1321.567,687.384C1351.082,734.447,1414.422,736.42,1469.92,733.962" fill="rgba(28, 83, 142, 0.4)" class="triangle-float3"></path><path d="M996.9870947822801 478.23650344126037L869.0142539563415 484.9432758374899 875.721026352571 612.9161166634286 1003.6938671785097 606.2093442671991z" fill="rgba(28, 83, 142, 0.4)" class="triangle-float1"></path><path d="M1307.3956641706893 520.9155745542677L1181.112600373629 450.7583168892342 1181.112600373629 577.0413806862945z" fill="rgba(28, 83, 142, 0.4)" class="triangle-float1"></path><path d="M6.077505969372774 377.38930450480194L13.048174202657208 510.3975778689057 146.05644756676102 503.4269096356213 139.08577933347658 370.4186362715175z" fill="rgba(28, 83, 142, 0.4)" class="triangle-float3"></path><path d="M968.1830961490252 300.57453008918117L878.7002080992407 419.3223332992866 997.4480113093462 508.8052213490711 1086.9308993591305 390.05741813896566z" fill="rgba(28, 83, 142, 0.4)" class="triangle-float3"></path><path d="M774.15,177.748C803.448,178.38,823.547,151.831,838.125,126.409C852.605,101.158,862.863,71.808,849.829,45.781C835.567,17.302,805.998,-1.028,774.15,-1.34C741.78,-1.657,709.738,15.026,695.859,44.272C683.345,70.641,700.018,98.571,714.786,123.748C729.292,148.479,745.486,177.13,774.15,177.748" fill="rgba(28, 83, 142, 0.4)" class="triangle-float1"></path><path d="M556.142973190532 183.8485209293786L606.2905827389768 65.70815633426895 438.0026085954223 133.70091138093377z" fill="rgba(28, 83, 142, 0.4)" class="triangle-float1"></path><path d="M568.842,320.573C615.718,321.714,660.737,297.986,683.732,257.122C706.327,216.969,702.527,166.702,677.017,128.335C653.916,93.59,610.539,85.82,568.842,84.323C523.275,82.687,470.642,81.484,446.319,120.051C421.012,160.177,438.512,211.274,463.247,251.755C486.725,290.18,523.825,319.477,568.842,320.573" fill="rgba(28, 83, 142, 0.4)" class="triangle-float2"></path><path d="M1389.6297772718924 155.7113379323596L1365.6314854416728 32.250829320776475 1266.1692686603092 179.7096297625791z" fill="rgba(28, 83, 142, 0.4)" class="triangle-float3"></path><path d="M1314.881,432.583C1360.704,431.677,1400.498,401.243,1420.743,360.125C1438.895,323.257,1428.902,280.579,1406.77,245.954C1386.507,214.253,1352.499,195.17,1314.881,194.506C1275.986,193.82,1238.785,210.246,1217.198,242.608C1192.841,279.122,1181.442,325.425,1201.513,364.459C1223.121,406.482,1267.637,433.517,1314.881,432.583" fill="rgba(28, 83, 142, 0.4)" class="triangle-float2"></path><path d="M1085.2645501702527 169.53644853623575L1221.1959645515885 152.84616950851273 1204.5056855238654 16.914755127177017 1068.5742711425296 33.60503415490004z" fill="rgba(28, 83, 142, 0.4)" class="triangle-float3"></path></g><defs><mask id="SvgjsMask1078"><rect width="1440" height="560" fill="#ffffff"></rect></mask><style>
            @keyframes float1 {
                0%{transform: translate(0, 0)}
                50%{transform: translate(-10px, 0)}
                100%{transform: translate(0, 0)}
            }

            .triangle-float1 {
                animation: float1 5s infinite;
            }

            @keyframes float2 {
                0%{transform: translate(0, 0)}
                50%{transform: translate(-5px, -5px)}
                100%{transform: translate(0, 0)}
            }

            .triangle-float2 {
                animation: float2 4s infinite;
            }

            @keyframes float3 {
                0%{transform: translate(0, 0)}
                50%{transform: translate(0, -10px)}
                100%{transform: translate(0, 0)}
            }

            .triangle-float3 {
                animation: float3 6s infinite;
            }
        </style></defs></svg>