<!--?xml version="1.0" standalone="no"?-->
              <svg id="sw-js-blob-svg" viewBox="0 0 100 100" xmlns="http://www.w3.org/2000/svg" version="1.1">
                    <defs> 
                        <linearGradient id="sw-gradient" x1="0" x2="1" y1="1" y2="0">
                            <stop id="stop1" stop-color="rgba(55, 248, 185.886, 1)" offset="0%"></stop>
                            <stop id="stop2" stop-color="rgba(232.096, 251, 31, 1)" offset="100%"></stop>
                        </linearGradient>
                    </defs>
                <path fill="url(#sw-gradient)" d="M17,-26.1C19,-22,15.5,-12.9,19.4,-5.3C23.4,2.4,34.8,8.7,34.2,11.2C33.6,13.7,20.8,12.4,13.1,15C5.4,17.6,2.7,24.1,-3.5,28.9C-9.6,33.7,-19.2,36.7,-23.3,32.9C-27.4,29.1,-25.9,18.5,-27,10C-28.2,1.5,-31.9,-5,-29.1,-8.2C-26.4,-11.4,-17.2,-11.2,-11.3,-14C-5.3,-16.8,-2.7,-22.5,2.4,-25.8C7.5,-29.2,15.1,-30.1,17,-26.1Z" width="100%" height="100%" transform="translate(50 50)" stroke-width="0" style="transition: all 0.3s ease 0s;" stroke="url(#sw-gradient)"></path>
              </svg>