<svg xmlns="http://www.w3.org/2000/svg" version="1.1" xmlns:xlink="http://www.w3.org/1999/xlink" xmlns:svgjs="http://svgjs.dev/svgjs" viewBox="0 0 1422 800"><defs><linearGradient x1="50%" y1="0%" x2="50%" y2="100%" id="ccchaos-grad"><stop stop-color="hsl(206, 75%, 49%)" stop-opacity="1" offset="0%"></stop><stop stop-color="hsl(331, 90%, 56%)" stop-opacity="1" offset="100%"></stop></linearGradient></defs><g stroke-width="3" stroke="url(#ccchaos-grad)" fill="none" stroke-linecap="round"><path d="M696.66 41.03C702.66 39.81 708.6 38.76 714.46 37.88 723.23 36.71 740.4 35.49 748.82 35.49 757.19 35.87 773.66 38.03 781.79 39.83 789.94 42.04 806.19 47.88 814.35 51.48 819.87 54.05 825.41 56.84 830.99 59.84 842.41 66.09 854.1 73.06 866.13 80.66 878.63 88.41 891.53 96.65 904.8 105.29 918.44 113.88 932.29 122.75 946.14 131.84 959.87 140.74 973.12 149.8 985.54 158.97 997.01 167.9 1007.02 176.94 1015.19 186.09 1021.74 194.98 1026.14 204.02 1028.31 213.2 1029.07 222.17 1028.1 231.35 1025.84 240.74 1023.6 249.97 1021.36 259.47 1019.82 269.26 1019.94 276.57 1023.44 291.58 1027.07 299.27 1030.36 304.41 1034.2 309.64 1038.54 314.96 1043.43 320.26 1048.7 325.66 1054.23 331.15 1060.03 336.62 1065.87 342.19 1071.61 347.86 1077.24 353.51 1082.51 359.27 1087.26 365.11 1091.52 370.95 1095.03 376.89 1097.69 382.92 1099.56 388.95 1100.45 395.08 1100.3 401.31 1099.28 407.53 1097.27 413.78 1094.35 420.05 1090.74 426.32 1086.41 432.62 1081.49 438.93 1076.22 445.25 1070.64 451.59 1064.87 457.94 1059.17 464.3 1053.56 470.68 1048.16 477.07 1043.18 483.46 1038.62 489.87 1034.53 496.28 1031.1 502.7 1028.24 509.12 1025.96 515.54 1024.39 521.97 1023.37 528.39 1022.87 534.8 1022.98 541.2 1023.47 547.59 1024.28 553.96 1027 566.65 1029.9 579.19 1032.25 591.48 1034.11 603.62 1034.24 615.41 1032.31 626.73 1028.7 637.74 1022.78 648.14 1014.71 657.78 1005.1 666.96 993.85 675.23 981.37 682.5 968.19 689.17 954.46 694.75 940.53 699.18 926.72 703.05 913.12 705.83 899.89 707.56 887.18 708.98 874.91 709.59 863.08 709.55 851.77 709.67 840.76 709.52 829.96 709.32 822.07 709.62 806.43 711 798.61 712.23 790.82 714.09 775.04 719.23 767.01 722.55 761.64 725.15 756.2 727.94 750.67 730.89 745.15 734.12 739.54 737.48 733.85 740.93 728.16 744.59 722.38 748.28 716.52 751.98 710.65 755.76 704.7 759.46 698.66 763.03 692.63 766.57 686.59 769.84 680.55 772.83 674.51 775.65 668.47 778.11 662.45 780.18 656.44 781.99 650.44 783.36 644.47 784.26 638.51 784.86 632.59 784.96 626.71 784.58 620.85 783.86 615.03 782.65 609.28 780.96 603.55 778.94 597.89 776.47 592.3 773.57 586.75 770.39 581.27 766.81 575.89 762.87 570.55 758.71 565.31 754.24 560.17 749.49 550.01 739.58 540.29 728.91 531.08 717.75 522 706.61 513.39 695.35 505.27 684.15 497.18 673.42 489.49 662.94 482.16 652.79 474.69 643.29 467.46 634.12 460.43 625.27 453.08 617.02 445.83 608.97 438.68 601.04 431.16 593.56 423.75 586.05 416.5 578.41 409.04 571.04 401.88 563.4 395.14 555.44 388.46 547.6 382.37 539.33 376.98 530.62 373.19 524.04 366.73 510.26 364.08 503.06 361.74 495.73 358.14 480.43 356.83 472.47 355.74 464.38 354.32 447.61 353.93 438.94 353.68 433.12 353.54 427.19 353.5 421.15 353.4 415.12 353.39 408.98 353.48 402.74 353.49 396.51 353.59 390.25 353.78 383.97 353.9 377.7 354.12 371.41 354.44 365.12 354.7 358.83 355.08 352.53 355.57 346.24 356.05 339.95 356.66 333.66 357.41 327.38 358.18 321.11 359.1 314.85 360.2 308.6 361.34 302.37 362.67 296.16 364.2 289.97 365.79 283.8 367.58 277.65 369.57 271.55 371.65 265.46 373.93 259.41 376.42 253.41 381.62 241.48 387.58 229.78 394.19 218.37 400.94 207.11 408.18 196.19 415.8 185.7 423.27 175.41 430.96 165.6 438.78 156.35 446.26 147.36 453.84 138.97 461.48 131.24 468.78 123.79 476.23 117.01 483.85 110.94 491.27 105.1 498.98 99.93 507.03 95.42 515.04 91.03 523.49 87.21 532.37 83.92 541.35 80.56 550.79 77.6 560.68 74.99 568.22 72.91 583.87 68.91 591.95 66.94 600.16 64.85 616.99 60.62 625.59 58.49 631.36 56.96 637.18 55.46 643.04 53.99 648.91 52.42 654.82 50.9 660.76 49.43 666.7 47.88 672.67 46.4 678.66 45.01 684.64 43.57 690.64 42.24 696.65 41.03" stroke-dasharray="3 4" transform="rotate(0, 711, 400)" opacity="0.28"></path><path d="M695.35 50.06C704.07 48.31 721.28 45.71 729.76 44.91 738.19 44.42 754.84 44.68 763.08 45.47 774.1 46.99 785.05 49.52 795.97 53 807.09 56.92 818.3 61.76 829.68 67.44 841.38 73.46 853.36 80.21 865.65 87.6 878.32 95.15 891.31 103.21 904.55 111.68 917.99 120.14 931.48 128.9 944.77 137.89 957.77 146.73 970.11 155.75 981.45 164.89 991.77 173.81 1000.55 182.85 1007.5 192 1012.93 200.91 1016.35 209.95 1017.77 219.13 1018.03 228.1 1016.85 237.25 1014.69 246.6 1012.79 255.79 1011.1 265.23 1010.26 274.92 1011.41 284.5 1014.39 294.38 1019.45 304.57 1027.01 314.69 1036.35 325.14 1046.91 335.93 1052.56 341.31 1058.22 346.78 1063.75 352.34 1069.14 357.89 1074.16 363.54 1078.68 369.27 1082.72 375 1086.03 380.82 1088.53 386.73 1090.29 392.64 1091.12 398.65 1090.96 404.74 1089.99 410.84 1088.09 416.96 1085.31 423.1 1081.88 429.24 1077.76 435.4 1073.06 441.58 1068.03 447.76 1062.66 453.96 1057.1 460.17 1051.57 466.38 1046.09 472.61 1040.77 478.84 1031.33 491.32 1023.57 503.82 1017.87 516.3 1014.8 528.77 1013.72 541.18 1014.2 553.46 1016.31 565.68 1018.81 577.71 1021.02 589.45 1023.01 601.02 1023.57 612.2 1022.35 622.87 1019.68 633.23 1014.86 642.95 1007.98 651.91 999.61 660.42 989.53 668.05 978.11 674.69 965.86 680.79 952.86 685.85 939.46 689.84 925.99 693.35 912.54 695.85 899.31 697.41 886.44 698.74 873.93 699.36 861.8 699.42 850.11 699.7 838.73 699.78 827.61 699.86 816.81 700.69 806.12 701.89 795.46 703.6 784.97 706.48 774.38 710.07 763.63 714.39 758.28 717 752.87 719.78 747.41 722.71 741.95 725.89 736.43 729.19 730.84 732.57 725.26 736.13 719.6 739.73 713.88 743.31 708.16 746.97 702.38 750.55 696.52 754.01 690.67 757.42 684.83 760.6 678.99 763.49 673.16 766.23 667.35 768.63 661.55 770.65 652.89 773.13 635.75 775.47 627.3 775.28 616.11 773.75 605.17 770.38 594.53 765.29 584 759.11 573.82 751.47 564.06 742.65 554.42 733.2 545.22 722.96 536.48 712.17 527.82 701.34 519.6 690.3 511.81 679.25 504 668.57 496.52 658.08 489.35 647.85 481.99 638.2 474.82 628.84 467.8 619.77 460.45 611.27 453.18 602.97 445.98 594.81 438.45 587.1 431.02 579.38 423.77 571.59 416.35 564.08 409.25 556.36 402.58 548.38 396.01 540.53 390.05 532.33 384.8 523.73 379.85 515.17 375.69 506.17 372.37 496.72 369.36 487.26 367.11 477.33 365.61 466.94 364.63 459.09 363.4 442.81 363.09 434.4 362.89 428.75 362.79 423 362.78 417.14 362.71 411.29 362.72 405.33 362.81 399.28 362.83 393.23 362.92 387.15 363.1 381.06 363.19 374.97 363.38 368.87 363.66 362.76 363.88 356.65 364.2 350.54 364.64 344.43 365.05 338.33 365.59 332.22 366.27 326.13 367.67 313.97 369.75 301.87 372.56 289.87 375.64 277.93 379.54 266.13 384.25 254.53 389.29 243.02 395.09 231.75 401.56 220.79 408.2 209.98 415.36 199.53 422.91 189.5 430.36 179.68 438.04 170.34 445.87 161.55 453.4 153.01 461.01 145.06 468.68 137.75 476.01 130.7 483.44 124.29 491.01 118.56 498.33 113.02 505.9 108.12 513.75 103.84 521.5 99.64 529.64 95.97 538.16 92.8 546.72 89.53 555.71 86.62 565.13 84.04 574.63 81.16 584.55 78.49 594.84 75.98 605.21 73.05 615.92 70.21 626.9 67.48 635.2 65.2 652.07 60.65 660.63 58.43 666.35 56.88 672.11 55.41 677.9 54.03 683.69 52.59 689.5 51.26 695.34 50.06" stroke-dasharray="5 3" transform="rotate(2.641025641025641, 711, 400)" opacity="0.38"></path><path d="M695.01 59.08C703.51 57.34 720.37 54.71 728.72 53.89 739.85 53.1 750.88 53.2 761.84 54.2 772.88 55.6 783.92 57.96 795.01 61.25 806.27 64.98 817.69 69.6 829.29 75.05 841.17 80.84 853.32 87.36 865.73 94.52 878.41 101.87 891.31 109.73 904.33 118.02 917.41 126.32 930.36 134.95 942.94 143.83 955.08 152.59 966.42 161.54 976.63 170.63 985.78 179.53 993.38 188.55 999.17 197.68 1003.6 206.59 1006.18 215.63 1006.98 224.8 1006.89 233.77 1005.63 242.91 1003.67 252.22 1002.19 261.37 1001.09 270.75 1000.96 280.36 1002.81 289.86 1006.42 299.63 1011.96 309.69 1019.79 319.67 1029.18 329.97 1039.58 340.58 1050.63 351.15 1061.12 362.06 1070.08 373.31 1073.89 378.93 1077.02 384.63 1079.37 390.42 1081.02 396.21 1081.79 402.09 1081.63 408.06 1080.7 414.03 1078.89 420.02 1076.26 426.02 1073.01 432.02 1069.09 438.04 1064.62 444.07 1054.77 456.15 1044.05 468.27 1033.39 480.4 1023.98 492.54 1016.03 504.68 1009.94 516.76 1006.3 528.82 1004.54 540.79 1004.34 552.59 1005.84 564.32 1007.87 575.81 1009.84 586.97 1011.84 597.96 1012.7 608.52 1012.04 618.54 1010.18 628.26 1006.35 637.32 1000.59 645.62 993.41 653.49 984.51 660.5 974.2 666.57 962.97 672.14 950.83 676.74 938.12 680.35 925.16 683.53 912.05 685.81 899 687.24 886.16 688.52 873.55 689.19 861.26 689.37 849.32 689.83 837.67 690.15 826.29 690.5 815.2 691.61 804.27 693.08 793.43 695.05 782.77 698.12 772.09 701.85 761.33 706.24 750.65 711.74 739.82 717.79 728.82 724.2 723.33 727.67 717.79 731.16 712.2 734.64 706.61 738.18 700.97 741.64 695.29 744.98 689.6 748.29 683.94 751.35 678.3 754.15 672.66 756.82 667.06 759.15 661.48 761.13 650.36 764.42 639.39 766.05 628.65 765.95 617.97 764.67 607.54 761.63 597.44 756.94 587.43 751.2 577.77 744.04 568.52 735.7 559.35 726.73 550.6 716.93 542.27 706.54 533.98 696.03 526.08 685.26 518.55 674.4 510.95 663.83 503.63 653.37 496.56 643.12 489.26 633.37 482.11 623.87 475.07 614.62 467.7 605.91 460.38 597.38 453.14 589.01 445.59 581.07 438.15 573.15 430.92 565.21 423.54 557.55 416.52 549.73 409.95 541.71 403.51 533.83 397.69 525.65 392.6 517.14 387.82 508.68 383.84 499.83 380.69 490.57 377.85 481.31 375.77 471.63 374.42 461.52 373.16 451.4 372.47 440.85 372.27 429.9 372.08 421.63 372.03 404.59 372.15 395.83 372.17 389.96 372.25 384.07 372.41 378.16 372.49 372.26 372.65 366.35 372.89 360.42 373.19 348.59 373.94 336.75 375.17 324.94 376.42 313.17 378.34 301.46 380.96 289.88 383.86 278.35 387.57 266.97 392.09 255.8 396.94 244.73 402.57 233.92 408.88 223.42 415.39 213.07 422.43 203.08 429.9 193.53 437.3 184.18 444.97 175.3 452.81 166.97 460.38 158.88 468.03 151.35 475.74 144.45 483.11 137.78 490.57 131.72 498.12 126.31 505.4 121.06 512.88 116.41 520.58 112.34 528.15 108.32 536.04 104.78 544.27 101.71 552.48 98.51 561.09 95.65 570.09 93.08 579.14 90.21 588.59 87.53 598.41 85 608.28 82.06 618.5 79.21 629.01 76.46 639.56 73.29 650.37 70.25 661.39 67.41 669.68 65.15 686.49 60.95 695 59.08" stroke-dasharray="2 2" transform="rotate(5.282051282051282, 711, 400)" opacity="0.51"></path><path d="M695.66 68.11C706.75 65.69 717.78 63.93 728.74 62.88 739.73 62.05 750.71 62.07 761.67 62.96 772.71 64.23 783.82 66.43 795.02 69.54 806.38 73.06 817.92 77.46 829.64 82.67 841.59 88.23 853.77 94.52 866.13 101.44 878.67 108.56 891.32 116.21 903.95 124.3 916.5 132.43 928.76 140.91 940.51 149.65 951.7 158.31 961.98 167.17 971.04 176.19 979.05 185.04 985.52 194.03 990.27 203.13 993.81 212.03 995.68 221.06 996.01 230.2 995.71 239.17 994.5 248.28 992.84 257.56 991.83 266.68 991.36 276 991.93 285.54 994.44 294.96 998.63 304.64 1004.6 314.56 1012.64 324.42 1022.03 334.57 1032.23 345.01 1042.92 355.41 1052.95 366.12 1061.45 377.15 1068.12 388.16 1071.89 399.51 1072.29 411.18 1069.83 422.85 1064.24 434.58 1056.14 446.34 1046.74 458.1 1036.4 469.9 1026.01 481.68 1016.67 493.46 1008.58 505.2 1002.15 516.86 997.98 528.49 995.59 539.99 994.73 551.29 995.58 562.5 997.11 573.44 998.76 584.02 1000.67 594.41 1001.69 604.35 1001.45 613.74 1000.26 622.82 997.31 631.25 992.56 638.92 986.51 646.2 978.77 652.63 969.58 658.17 959.43 663.27 948.25 667.46 936.35 670.72 924.06 673.65 911.45 675.75 898.74 677.09 886.1 678.36 873.58 679.09 861.27 679.42 849.23 680.08 837.43 680.63 825.87 681.26 814.58 682.64 803.47 684.37 792.49 686.57 781.68 689.82 770.92 693.67 760.15 698.12 749.47 703.6 738.71 709.56 727.86 715.83 717.04 722.71 706.09 729.52 695.02 735.96 683.96 742.28 673.04 747.56 662.31 751.61 651.59 754.86 641.07 756.54 630.81 756.59 620.58 755.54 610.65 752.81 601.04 748.51 591.49 743.2 582.3 736.52 573.5 728.66 564.75 720.16 556.37 710.82 548.4 700.84 540.4 690.69 532.75 680.22 525.42 669.59 517.97 659.17 510.75 648.8 503.73 638.57 496.45 628.77 489.28 619.17 482.2 609.8 474.79 600.9 467.43 592.19 460.14 583.64 452.57 575.48 445.14 567.38 437.93 559.29 430.63 551.47 423.7 543.55 417.25 535.46 410.96 527.54 405.31 519.37 400.39 510.91 395.81 502.52 392.01 493.79 389.04 484.69 386.38 475.62 384.47 466.15 383.26 456.29 382.15 446.43 381.56 436.17 381.46 425.53 381.16 414.89 381.18 403.86 381.48 392.48 381.43 381.11 381.65 369.66 382.13 358.19 382.36 346.74 382.99 335.29 384.09 323.88 385.2 312.51 386.96 301.22 389.4 290.05 392.11 278.95 395.62 268.01 399.93 257.29 404.59 246.67 410.02 236.31 416.14 226.28 422.5 216.4 429.41 206.88 436.77 197.81 444.11 188.92 451.74 180.5 459.57 172.62 467.17 164.96 474.86 157.85 482.62 151.34 490.05 145.03 497.55 139.31 505.12 134.19 512.41 129.21 519.85 124.78 527.46 120.9 534.9 117.04 542.61 113.63 550.62 110.63 558.56 107.5 566.86 104.67 575.51 102.11 584.17 99.25 593.22 96.56 602.61 94.01 612.04 91.05 621.82 88.18 631.9 85.43 642.01 82.26 652.41 79.22 663.05 76.39 673.7 73.28 684.57 70.48 695.65 68.11" stroke-dasharray="6 6" transform="rotate(7.923076923076923, 711, 400)" opacity="0.21"></path><path d="M697.27 77.13C708.1 74.73 718.93 72.96 729.76 71.88 740.62 71 751.52 70.95 762.46 71.73 773.48 72.88 784.61 74.92 795.85 77.84 807.24 81.17 818.8 85.35 830.52 90.32 842.41 95.64 854.47 101.68 866.64 108.35 878.88 115.24 891.12 122.67 903.2 130.54 915.09 138.48 926.55 146.78 937.36 155.37 947.55 163.9 956.74 172.65 964.67 181.58 971.59 190.36 977.02 199.29 980.84 208.34 983.62 217.22 984.94 226.22 984.95 235.33 984.56 244.28 983.51 253.36 982.22 262.59 981.74 271.68 981.91 280.95 983.16 290.41 986.29 299.76 991 309.34 997.35 319.15 1005.55 328.89 1014.89 338.9 1024.86 349.16 1035.17 359.39 1044.75 369.92 1052.79 380.72 1059.08 391.52 1062.61 402.62 1062.96 414.02 1060.63 425.42 1055.33 436.85 1047.65 448.29 1038.68 459.74 1028.74 471.19 1018.63 482.59 1009.39 493.99 1001.21 505.33 994.5 516.54 989.85 527.72 986.87 538.73 985.37 549.52 985.58 560.19 986.56 570.57 987.83 580.57 989.53 590.37 990.59 599.7 990.65 608.46 989.99 616.94 987.77 624.76 983.94 631.83 978.93 638.54 972.29 644.45 964.22 649.51 955.17 654.18 945.01 658.01 934.01 660.99 922.51 663.7 910.55 665.67 898.35 666.97 886.08 668.26 873.8 669.09 861.63 669.58 849.63 670.43 837.81 671.24 826.2 672.13 814.8 673.76 803.58 675.74 792.52 678.16 781.61 681.56 770.79 685.52 760.03 690.02 749.35 695.47 738.66 701.33 727.96 707.46 717.28 714.14 706.54 720.72 695.75 726.93 684.97 733.03 674.39 738.15 664.03 742.09 653.68 745.29 643.58 747.02 633.75 747.21 623.95 746.37 614.44 743.94 605.28 740.01 596.15 735.12 587.36 728.89 578.94 721.51 570.53 713.49 562.48 704.61 554.77 695.06 547.01 685.29 539.54 675.15 532.34 664.79 524.98 654.57 517.81 644.33 510.79 634.17 503.5 624.37 496.29 614.73 489.15 605.27 481.69 596.24 474.29 587.38 466.96 578.67 459.39 570.34 451.99 562.07 444.82 553.83 437.61 545.87 430.8 537.84 424.49 529.68 418.38 521.7 412.91 513.52 408.19 505.09 403.81 496.75 400.21 488.12 397.43 479.16 394.95 470.24 393.2 460.96 392.14 451.34 391.16 441.71 390.68 431.72 390.66 421.39 390.44 411.04 390.5 400.35 390.82 389.33 390.77 378.3 390.95 367.23 391.38 356.15 391.54 345.08 392.08 334.02 393.06 323.02 394.03 312.06 395.62 301.19 397.88 290.45 400.4 279.79 403.71 269.29 407.8 259.03 412.24 248.86 417.46 238.97 423.37 229.42 429.55 220 436.3 210.96 443.53 202.35 450.78 193.91 458.36 185.95 466.15 178.51 473.76 171.26 481.49 164.55 489.29 158.41 496.79 152.44 504.35 147.03 511.96 142.19 519.28 137.46 526.72 133.24 534.3 129.53 541.68 125.81 549.27 122.5 557.12 119.58 564.86 116.49 572.91 113.69 581.29 111.14 589.64 108.27 598.34 105.56 607.38 102.99 616.43 100.02 625.82 97.14 635.53 94.37 645.24 91.21 655.27 88.18 665.57 85.36 675.87 82.27 686.44 79.5 697.26 77.13" stroke-dasharray="2 0" transform="rotate(10.564102564102564, 711, 400)" opacity="0.41"></path><path d="M699.74 86.16C710.32 83.77 720.97 81.99 731.66 80.89 742.37 79.97 753.17 79.84 764.05 80.53 775.01 81.55 786.09 83.44 797.29 86.18 808.61 89.31 820.09 93.27 831.69 98 843.4 103.08 855.2 108.86 867.02 115.28 878.82 121.92 890.51 129.1 901.91 136.75 913.02 144.48 923.6 152.59 933.42 161 942.58 169.38 950.69 178 957.54 186.8 963.44 195.5 967.93 204.35 970.96 213.33 973.12 222.16 974.03 231.11 973.86 240.17 973.5 249.09 972.7 258.13 971.86 267.31 971.93 276.36 972.74 285.57 974.65 294.95 978.36 304.23 983.55 313.71 990.2 323.4 998.5 333.03 1007.76 342.89 1017.47 352.99 1027.39 363.05 1036.51 373.38 1044.11 383.97 1050.03 394.54 1053.32 405.39 1053.62 416.51 1051.42 427.62 1046.42 438.75 1039.13 449.86 1030.6 460.98 1021.05 472.06 1011.24 483.08 1002.14 494.08 993.92 504.99 986.97 515.75 981.9 526.46 978.38 536.97 976.27 547.23 975.83 557.37 976.24 567.19 977.06 576.6 978.48 585.82 979.48 594.56 979.7 602.72 979.42 610.61 977.81 617.85 974.76 624.37 970.69 630.56 965.08 635.99 958.08 640.62 950.12 644.92 941.01 648.44 930.97 651.18 920.37 653.72 909.18 655.61 897.61 656.9 885.86 658.23 873.98 659.18 862.1 659.86 850.3 660.91 838.59 661.96 827.05 663.11 815.66 664.98 804.42 667.19 793.35 669.81 782.42 673.36 771.59 677.41 760.87 681.94 750.22 687.35 739.61 693.11 729.04 699.08 718.5 705.56 707.96 711.92 697.43 717.91 686.9 723.79 676.63 728.73 666.62 732.56 656.6 735.72 646.86 737.49 637.43 737.8 627.99 737.16 618.87 735.02 610.09 731.43 601.3 726.94 592.85 721.16 584.75 714.25 576.62 706.71 568.81 698.29 561.31 689.19 553.71 679.82 546.36 670.03 539.24 659.98 531.92 649.99 524.75 639.93 517.7 629.89 510.38 620.14 503.11 610.5 495.9 601.02 488.39 591.9 480.95 582.93 473.6 574.1 466.05 565.62 458.69 557.21 451.6 548.85 444.51 540.75 437.84 532.61 431.69 524.39 425.77 516.35 420.52 508.14 416 499.74 411.83 491.43 408.45 482.87 405.86 474.04 403.56 465.24 401.97 456.14 401.05 446.72 400.2 437.32 399.83 427.58 399.88 417.53 399.72 407.48 399.82 397.11 400.15 386.43 400.11 375.76 400.27 365.05 400.64 354.36 400.74 343.67 401.19 333.01 402.05 322.43 402.9 311.88 404.33 301.44 406.42 291.14 408.74 280.91 411.83 270.87 415.69 261.07 419.91 251.36 424.89 241.94 430.58 232.85 436.56 223.9 443.13 215.32 450.19 207.17 457.33 199.18 464.82 191.66 472.56 184.64 480.16 177.79 487.9 171.45 495.73 165.66 503.29 160.02 510.91 154.9 518.59 150.31 525.97 145.8 533.44 141.77 541.02 138.21 548.38 134.61 555.92 131.39 563.67 128.53 571.27 125.49 579.15 122.7 587.32 120.14 595.42 117.28 603.85 114.55 612.6 111.95 621.33 108.97 630.4 106.08 639.78 103.3 649.16 100.14 658.86 97.13 668.86 94.32 678.85 91.26 689.14 88.51 699.73 86.16" stroke-dasharray="2 1" transform="rotate(13.205128205128204, 711, 400)" opacity="0.27"></path><path d="M702.9 95.18C713.26 92.81 723.72 91.03 734.25 89.9 744.81 88.95 755.48 88.76 766.25 89.34 777.08 90.25 788.04 91.99 799.12 94.55 810.27 97.47 821.55 101.21 832.9 105.71 844.3 110.53 855.71 116.06 867.05 122.21 878.29 128.6 889.3 135.53 899.93 142.93 910.19 150.44 919.83 158.33 928.64 166.54 936.77 174.75 943.84 183.21 949.69 191.88 954.67 200.46 958.35 209.21 960.72 218.09 962.4 226.84 963.03 235.73 962.81 244.73 962.6 253.59 962.13 262.58 961.78 271.69 962.43 280.69 963.87 289.83 966.41 299.12 970.65 308.32 976.24 317.71 983.14 327.27 991.49 336.78 1000.62 346.5 1010.04 356.42 1019.57 366.32 1028.24 376.45 1035.4 386.81 1040.96 397.16 1044.04 407.76 1044.29 418.59 1042.21 429.42 1037.48 440.23 1030.59 451 1022.48 461.76 1013.34 472.47 1003.84 483.09 994.91 493.68 986.69 504.15 979.56 514.44 974.13 524.68 970.11 534.69 967.43 544.41 966.36 554.03 966.18 563.29 966.53 572.13 967.58 580.78 968.41 588.94 968.68 596.53 968.66 603.87 967.52 610.57 965.11 616.58 961.86 622.3 957.19 627.3 951.18 631.54 944.28 635.52 936.22 638.78 927.17 641.34 917.52 643.75 907.18 645.59 896.35 646.9 885.26 648.31 873.91 649.39 862.46 650.26 850.99 651.53 839.54 652.81 828.19 654.21 816.93 656.31 805.79 658.73 794.8 661.54 783.91 665.21 773.14 669.33 762.49 673.88 751.91 679.23 741.41 684.88 730.99 690.7 720.59 696.98 710.24 703.11 699.95 708.88 689.67 714.55 679.66 719.33 669.96 723.05 660.24 726.15 650.83 727.95 641.72 728.37 632.61 727.92 623.81 726.04 615.34 722.79 606.84 718.68 598.67 713.34 590.81 706.89 582.89 699.81 575.25 691.87 567.89 683.21 560.39 674.27 553.11 664.86 546.01 655.13 538.7 645.43 531.5 635.58 524.39 625.71 517.01 616.06 509.68 606.48 502.41 597.01 494.86 587.85 487.39 578.82 480.04 569.91 472.54 561.31 465.25 552.79 458.26 544.33 451.31 536.12 444.81 527.89 438.86 519.61 433.16 511.5 428.12 503.27 423.83 494.88 419.89 486.6 416.72 478.1 414.32 469.37 412.21 460.69 410.79 451.74 410 442.53 409.26 433.32 408.99 423.83 409.11 414.05 409.01 404.27 409.15 394.21 409.49 383.88 409.45 373.55 409.59 363.2 409.92 352.89 409.96 342.58 410.33 332.33 411.08 322.16 411.81 312.03 413.09 302.01 414.99 292.16 417.12 282.37 420 272.77 423.62 263.43 427.6 254.19 432.34 245.22 437.79 236.6 443.53 228.1 449.89 219.98 456.77 212.28 463.76 204.72 471.13 197.62 478.78 190.99 486.34 184.52 494.07 178.54 501.92 173.08 509.53 167.74 517.21 162.89 524.94 158.53 532.4 154.23 539.92 150.37 547.54 146.94 554.92 143.44 562.45 140.3 570.14 137.48 577.68 134.47 585.45 131.7 593.47 129.13 601.39 126.25 609.62 123.51 618.14 120.89 626.62 117.9 635.42 115 644.53 112.21 653.62 109.07 663.04 106.07 672.77 103.28 682.49 100.24 692.54 97.51 702.9 95.18" stroke-dasharray="4 2" transform="rotate(15.846153846153847, 711, 400)" opacity="0.70"></path><path d="M706.57 104.21C716.71 101.85 726.97 100.08 737.32 98.93 747.7 97.94 758.19 97.68 768.79 98.17 779.44 98.97 790.2 100.56 801.05 102.94 811.95 105.68 822.92 109.19 833.91 113.45 844.88 118.03 855.79 123.29 866.53 129.17 877.11 135.3 887.36 141.96 897.13 149.1 906.5 156.37 915.18 164.03 922.98 172.02 930.14 180.03 936.24 188.31 941.17 196.81 945.35 205.25 948.35 213.87 950.2 222.63 951.55 231.29 952.04 240.09 951.88 248.99 951.9 257.79 951.83 266.7 952.02 275.73 953.25 284.66 955.3 293.72 958.42 302.91 963.13 312.03 969.07 321.3 976.15 330.74 984.51 340.12 993.47 349.68 1002.59 359.44 1011.71 369.16 1019.93 379.09 1026.67 389.22 1031.88 399.33 1034.74 409.67 1034.95 420.2 1032.99 430.74 1028.54 441.23 1022.02 451.64 1014.33 462.05 1005.59 472.38 996.43 482.58 987.69 492.75 979.51 502.78 972.26 512.59 966.52 522.35 962.06 531.86 958.84 541.06 957.17 550.15 956.41 558.87 956.24 567.15 956.87 575.26 957.46 582.87 957.66 589.92 957.76 596.74 956.95 602.95 955.07 608.49 952.5 613.78 948.65 618.4 943.56 622.31 937.65 626.01 930.59 629.06 922.54 631.48 913.87 633.81 904.44 635.63 894.42 636.99 884.08 638.5 873.39 639.73 862.48 640.8 851.48 642.27 840.42 643.78 829.37 645.43 818.36 647.75 807.43 650.36 796.6 653.33 785.85 657.11 775.21 661.28 764.7 665.83 754.24 671.12 743.87 676.65 733.61 682.31 723.38 688.39 713.23 694.3 703.16 699.86 693.1 705.32 683.35 709.92 673.91 713.53 664.46 716.58 655.32 718.39 646.5 718.92 637.66 718.63 629.12 717 620.9 714.07 612.63 710.34 604.66 705.41 596.98 699.41 589.21 692.8 581.69 685.32 574.4 677.13 566.96 668.62 559.7 659.61 552.58 650.24 545.24 640.85 537.99 631.26 530.82 621.6 523.38 612.1 515.99 602.62 508.66 593.2 501.09 584.06 493.62 575.01 486.3 566.06 478.87 557.4 471.68 548.8 464.82 540.26 458.05 531.96 451.75 523.66 446.01 515.33 440.55 507.17 435.75 498.92 431.69 490.55 427.99 482.28 425.04 473.84 422.84 465.21 420.91 456.63 419.64 447.83 418.98 438.8 418.36 429.78 418.17 420.51 418.35 411 418.31 401.48 418.47 391.72 418.83 381.72 418.79 371.73 418.91 361.74 419.2 351.8 419.2 341.88 419.5 332.02 420.15 322.26 420.76 312.54 421.9 302.95 423.63 293.54 425.56 284.19 428.22 275.05 431.6 266.16 435.33 257.36 439.81 248.85 445 240.69 450.49 232.63 456.62 224.95 463.27 217.68 470.08 210.53 477.3 203.83 484.83 197.59 492.32 191.47 500.02 185.82 507.85 180.66 515.49 175.6 523.21 170.99 530.99 166.85 538.52 162.72 546.11 159.01 553.77 155.69 561.2 152.29 568.75 149.21 576.44 146.43 583.95 143.44 591.66 140.67 599.58 138.09 607.4 135.21 615.47 132.45 623.82 129.8 632.11 126.8 640.7 123.89 649.59 121.1 658.45 117.97 667.63 114.99 677.13 112.22 686.61 109.22 696.42 106.52 706.57 104.21" stroke-dasharray="1 2" transform="rotate(18.48717948717949, 711, 400)" opacity="0.55"></path><path d="M710.51 113.23C720.44 110.9 730.48 109.14 740.62 107.97 750.79 106.95 761.06 106.63 771.43 107.03 781.82 107.71 792.31 109.16 802.84 111.37 813.39 113.91 823.96 117.21 834.47 121.22 844.92 125.55 855.23 130.55 865.28 136.16 875.13 142.01 884.56 148.4 893.45 155.27 901.91 162.28 909.63 169.69 916.48 177.44 922.71 185.24 927.93 193.32 932.07 201.62 935.57 209.89 938.03 218.36 939.51 226.97 940.65 235.51 941.12 244.19 941.14 252.98 941.46 261.69 941.85 270.51 942.58 279.43 944.39 288.27 947.02 297.23 950.68 306.31 955.8 315.33 962.02 324.48 969.24 333.77 977.54 343.02 986.31 352.43 995.1 361.99 1003.8 371.53 1011.59 381.25 1017.92 391.14 1022.79 401.02 1025.45 411.08 1025.62 421.31 1023.77 431.54 1019.58 441.7 1013.43 451.76 1006.15 461.81 997.82 471.74 988.99 481.52 980.48 491.28 972.38 500.85 965.06 510.19 959.07 519.48 954.22 528.49 950.51 537.17 948.27 545.74 946.93 553.94 946.23 561.69 946.41 569.28 946.67 576.38 946.72 582.92 946.52 592.14 941.12 607.19 935.26 612.97 930.25 616.44 924.15 619.33 917.06 621.64 909.36 623.92 900.85 625.75 891.7 627.2 882.19 628.81 872.22 630.21 861.96 631.47 851.55 633.16 840.97 634.89 830.35 636.77 819.71 639.28 809.08 642.07 798.52 645.19 788 649.05 777.56 653.27 767.24 657.8 756.96 663.01 746.77 668.42 736.7 673.92 726.66 679.79 716.7 685.49 706.86 690.83 697.01 696.08 687.49 700.52 678.29 704.02 669.08 707 660.18 708.83 651.59 709.44 642.96 709.32 634.64 707.92 626.6 705.29 618.51 701.91 610.69 697.38 603.13 691.82 595.46 685.67 588 678.65 580.74 670.92 573.32 662.86 566.03 654.27 558.87 645.28 551.49 636.22 544.18 626.94 536.93 617.52 529.44 608.22 522.01 598.88 514.64 589.58 507.08 580.5 499.64 571.47 492.38 562.53 485.05 553.84 478 545.2 471.31 536.63 464.74 528.27 458.66 519.92 453.16 511.56 447.95 503.36 443.41 495.1 439.6 486.75 436.14 478.5 433.41 470.12 431.41 461.58 429.66 453.1 428.54 444.44 428 435.58 427.48 426.74 427.37 417.68 427.61 408.42 427.61 399.17 427.8 389.69 428.16 380.02 428.13 370.35 428.23 360.72 428.49 351.16 428.45 341.6 428.68 332.13 429.25 322.79 429.75 313.47 430.75 304.31 432.31 295.33 434.06 286.41 436.5 277.7 439.64 269.27 443.11 260.91 447.32 252.84 452.23 245.11 457.46 237.49 463.32 230.22 469.73 223.36 476.33 216.62 483.36 210.28 490.74 204.4 498.12 198.62 505.73 193.28 513.51 188.4 521.15 183.58 528.89 179.2 536.7 175.24 544.29 171.28 551.94 167.7 559.66 164.47 567.15 161.15 574.75 158.12 582.45 155.36 589.97 152.39 597.66 149.62 605.53 147.02 613.28 144.13 621.26 141.35 629.49 138.69 637.63 135.68 646.06 132.77 654.77 129.98 663.44 126.86 672.42 123.9 681.71 121.15 690.98 118.19 700.58 115.52 710.51 113.23" stroke-dasharray="0 2" transform="rotate(21.128205128205128, 711, 400)" opacity="0.40"></path><path d="M714.48 122.26C724.19 119.96 734 118.2 743.9 117.01 753.81 115.97 763.82 115.59 773.89 115.9 783.97 116.48 794.1 117.79 804.24 119.83 814.35 122.18 824.43 125.27 834.38 129.04 844.23 133.12 853.87 137.85 863.18 143.18 872.24 148.76 880.83 154.87 888.82 161.45 896.4 168.19 903.21 175.33 909.16 182.83 914.57 190.39 919.02 198.24 922.48 206.32 925.44 214.4 927.5 222.69 928.73 231.13 929.8 239.52 930.36 248.06 930.63 256.71 931.33 265.29 932.19 273.99 933.49 282.8 935.85 291.53 939.03 300.37 943.17 309.32 948.64 318.21 955.09 327.23 962.38 336.37 970.59 345.46 979.13 354.7 987.58 364.07 995.86 373.42 1003.21 382.92 1009.14 392.56 1013.69 402.19 1016.15 411.98 1016.28 421.9 1014.54 431.81 1010.6 441.63 1004.81 451.32 997.93 461 990.01 470.54 981.54 479.9 973.28 489.23 965.3 498.36 957.94 507.23 951.76 516.05 946.57 524.57 942.43 532.75 939.66 540.83 937.76 548.52 936.53 555.77 936.22 562.87 936.1 569.49 935.91 575.57 935.65 584.15 931.24 598.15 926.36 603.55 922.15 606.84 916.91 609.6 910.72 611.85 903.96 614.12 896.38 615.99 888.11 617.53 879.45 619.27 870.28 620.83 860.73 622.3 850.98 624.18 841 626.13 830.88 628.22 820.71 630.92 810.49 633.87 800.28 637.1 790.08 641.03 779.92 645.27 769.85 649.79 759.81 654.91 749.86 660.19 740.01 665.53 730.17 671.2 720.44 676.68 710.81 681.81 701.18 686.85 691.88 691.12 682.89 694.51 673.89 697.42 665.19 699.25 656.79 699.95 648.34 699.96 640.18 698.78 632.29 696.44 624.33 693.39 616.6 689.25 609.1 684.11 601.49 678.41 594.06 671.86 586.79 664.59 579.36 656.97 572.04 648.81 564.81 640.23 557.38 631.54 550.01 622.58 542.71 613.44 535.18 604.38 527.73 595.24 520.36 586.09 512.84 577.12 505.46 568.17 498.29 559.28 491.11 550.6 484.22 541.97 477.73 533.39 471.4 525.01 465.57 516.64 460.33 508.27 455.39 500.06 451.12 491.8 447.56 483.48 444.34 475.27 441.83 466.94 440.03 458.51 438.45 450.12 437.48 441.59 437.05 432.9 436.63 424.23 436.59 415.39 436.88 406.37 436.91 397.36 437.13 388.17 437.5 378.82 437.47 369.47 437.56 360.18 437.79 350.98 437.72 341.79 437.89 332.71 438.38 323.77 438.78 314.85 439.65 306.1 441.06 297.55 442.62 289.04 444.84 280.77 447.74 272.77 450.96 264.83 454.89 257.19 459.51 249.89 464.45 242.67 470.03 235.81 476.17 229.34 482.52 222.96 489.33 216.98 496.51 211.43 503.74 205.95 511.24 200.9 518.93 196.27 526.53 191.68 534.25 187.49 542.06 183.7 549.69 179.88 557.39 176.41 565.15 173.27 572.71 170.01 580.35 167.02 588.08 164.28 595.64 161.32 603.34 158.54 611.18 155.92 618.91 153.02 626.83 150.22 634.96 147.54 643.01 144.53 651.32 141.62 659.88 138.83 668.4 135.74 677.2 132.8 686.3 130.08 695.38 127.15 704.77 124.52 714.48 122.26" stroke-dasharray="5 2" transform="rotate(23.76923076923077, 711, 400)" opacity="0.50"></path><path d="M718.23 131.28C727.71 129.01 737.27 127.26 746.89 126.07 756.52 125 766.2 124.57 775.92 124.8 785.63 125.27 795.34 126.45 805.01 128.33 814.63 130.5 824.14 133.37 833.47 136.91 842.67 140.74 851.59 145.2 860.12 150.25 868.39 155.54 876.14 161.36 883.26 167.65 889.99 174.1 895.97 180.97 901.12 188.19 905.79 195.49 909.59 203.09 912.51 210.94 915.06 218.81 916.85 226.88 917.98 235.13 919.08 243.34 919.83 251.71 920.42 260.2 921.53 268.63 922.9 277.19 924.75 285.84 927.64 294.44 931.32 303.14 935.88 311.94 941.65 320.69 948.26 329.55 955.57 338.52 963.64 347.45 971.92 356.5 980.01 365.67 987.87 374.81 994.79 384.08 1000.33 393.46 1004.58 402.84 1006.85 412.34 1006.95 421.93 1005.31 431.53 1001.62 441 996.17 450.32 989.69 459.63 982.17 468.77 974.06 477.71 966.07 486.63 958.24 495.31 950.9 503.73 944.58 512.08 939.12 520.14 934.59 527.84 931.33 535.44 928.91 542.65 927.16 549.43 926.06 559.16 924.84 575.91 923.45 582.83 921.05 589 911.18 598.58 903.57 602.14 897.69 604.41 890.99 606.35 883.58 608 875.79 609.88 867.44 611.61 858.65 613.28 849.63 615.36 840.3 617.51 830.77 619.79 821.15 622.65 811.41 625.74 801.63 629.08 791.83 633.06 782.03 637.31 772.28 641.79 762.54 646.81 752.86 651.96 743.26 657.13 733.68 662.59 724.18 667.87 714.77 672.78 705.37 677.62 696.28 681.73 687.48 685 678.67 687.85 670.14 689.67 661.9 690.44 653.61 690.58 645.57 689.6 637.78 687.52 629.91 684.79 622.24 681.02 614.78 676.29 607.19 671.02 599.76 664.92 592.47 658.11 585.01 650.95 577.64 643.24 570.36 635.08 562.89 626.77 555.47 618.17 548.12 609.35 540.6 600.56 533.15 591.65 525.81 582.7 518.37 573.88 511.1 565.06 504.06 556.27 497.06 547.65 490.38 539.06 484.12 530.52 478.04 522.15 472.49 513.8 467.53 505.46 462.87 497.25 458.88 489.02 455.58 480.75 452.61 472.58 450.32 464.32 448.7 455.99 447.3 447.7 446.46 439.3 446.14 430.78 445.81 422.28 445.83 413.64 446.15 404.87 446.23 396.1 446.46 387.19 446.83 378.15 446.81 369.1 446.9 360.15 447.1 351.31 447 342.47 447.13 333.77 447.54 325.22 447.85 316.69 448.61 308.34 449.86 300.2 451.25 292.11 453.26 284.25 455.92 276.66 458.87 269.13 462.52 261.9 466.84 255 471.48 248.17 476.76 241.69 482.6 235.58 488.68 229.55 495.23 223.9 502.18 218.65 509.22 213.46 516.56 208.66 524.12 204.26 531.64 199.87 539.3 195.86 547.08 192.21 554.71 188.52 562.43 185.14 570.21 182.06 577.81 178.86 585.5 175.9 593.26 173.16 600.86 170.21 608.57 167.42 616.41 164.79 624.13 161.87 632.01 159.06 640.08 156.36 648.07 153.35 656.28 150.45 664.71 147.66 673.1 144.6 681.75 141.69 690.67 138.99 699.57 136.11 708.76 133.52 718.23 131.28" stroke-dasharray="4 4" transform="rotate(26.41025641025641, 711, 400)" opacity="0.50"></path><path d="M721.54 140.31C730.77 138.07 740.05 136.33 749.35 135.13 758.66 134.04 767.99 133.57 777.29 133.72 786.59 134.1 795.83 135.15 804.97 136.86 814.04 138.85 822.95 141.52 831.61 144.82 840.13 148.4 848.31 152.6 856.06 157.37 863.55 162.37 870.5 167.89 876.81 173.88 882.75 180.04 887.98 186.62 892.43 193.54 896.49 200.57 899.78 207.9 902.29 215.49 904.56 223.12 906.21 230.96 907.34 238.98 908.57 246.99 909.58 255.16 910.56 263.46 912.11 271.72 913.99 280.1 916.37 288.58 919.75 297.02 923.88 305.56 928.79 314.19 934.8 322.77 941.51 331.46 948.79 340.24 956.69 348.99 964.67 357.84 972.4 366.78 979.84 375.7 986.34 384.73 991.5 393.84 995.45 402.95 997.55 412.15 997.61 421.42 996.08 430.7 992.62 439.82 987.51 448.76 981.41 457.7 974.29 466.45 966.55 474.97 958.85 483.47 951.2 491.73 943.92 499.69 937.51 507.61 931.84 515.21 926.99 522.45 923.29 529.61 920.37 536.37 918.12 542.71 916.29 551.82 914.17 567.48 912.74 573.96 910.65 579.79 902.24 588.99 895.69 592.53 890.59 594.83 884.71 596.85 878.13 598.63 871.18 600.65 863.64 602.55 855.62 604.41 847.36 606.68 838.74 609.01 829.85 611.47 820.84 614.48 811.65 617.69 802.36 621.12 793.03 625.13 783.65 629.37 774.27 633.8 764.88 638.72 755.52 643.73 746.21 648.72 736.92 653.99 727.67 659.05 718.5 663.76 709.34 668.4 700.45 672.34 691.84 675.49 683.21 678.26 674.84 680.08 666.72 680.91 658.56 681.16 650.62 680.36 642.9 678.54 635.1 676.11 627.48 672.69 620.02 668.36 612.45 663.51 605.01 657.86 597.68 651.5 590.2 644.8 582.79 637.53 575.47 629.8 567.97 621.9 560.54 613.67 553.18 605.2 545.69 596.72 538.29 588.09 531.03 579.38 523.7 570.75 516.58 562.1 509.72 553.45 502.93 544.94 496.49 536.44 490.49 527.98 484.7 519.66 479.44 511.36 474.77 503.07 470.42 494.9 466.7 486.72 463.67 478.52 460.94 470.41 458.87 462.24 457.44 454.01 456.2 445.84 455.49 437.58 455.26 429.23 455.01 420.9 455.09 412.46 455.44 403.93 455.55 395.4 455.8 386.75 456.17 378.01 456.15 369.27 456.23 360.65 456.42 352.15 456.3 343.67 456.38 335.32 456.73 327.15 456.97 319 457.61 311.04 458.72 303.3 459.94 295.6 461.75 288.14 464.17 280.95 466.87 273.81 470.23 266.96 474.25 260.44 478.58 253.98 483.53 247.85 489.06 242.08 494.83 236.37 501.1 231.02 507.78 226.05 514.59 221.11 521.72 216.54 529.11 212.35 536.49 208.15 544.06 204.29 551.75 200.76 559.35 197.17 567.05 193.87 574.82 190.85 582.44 187.69 590.15 184.75 597.92 182.01 605.55 179.06 613.28 176.27 621.11 173.61 628.83 170.68 636.69 167.86 644.7 165.15 652.64 162.15 660.76 159.25 669.09 156.47 677.36 153.44 685.87 150.57 694.61 147.9 703.33 145.07 712.31 142.51 721.54 140.31" stroke-dasharray="6 5" transform="rotate(29.05128205128205, 711, 400)" opacity="0.34"></path><path d="M724.19 149.33C733.16 147.13 742.13 145.41 751.09 144.2 760.04 143.1 768.97 142.58 777.83 142.66 786.67 142.95 795.4 143.87 803.97 145.43 812.47 147.25 820.75 149.71 828.73 152.78 836.57 156.12 844.02 160.06 851.01 164.54 857.76 169.25 863.95 174.48 869.53 180.16 874.78 186.02 879.37 192.29 883.24 198.91 886.81 205.64 889.7 212.69 891.94 220 894.05 227.36 895.67 234.95 896.92 242.72 898.35 250.51 899.68 258.45 901.08 266.53 903.09 274.59 905.46 282.77 908.35 291.05 912.18 299.3 916.69 307.65 921.9 316.08 928.07 324.48 934.83 332.98 942.02 341.54 949.71 350.09 957.39 358.72 964.74 367.42 971.76 376.11 977.85 384.88 982.65 393.71 986.31 402.55 988.24 411.44 988.28 420.38 986.84 429.32 983.61 438.09 978.82 446.67 973.1 455.23 966.37 463.59 959 471.7 951.61 479.8 944.18 487.63 937 495.17 930.56 502.66 924.72 509.83 919.6 516.64 915.52 523.38 912.16 529.73 909.43 535.67 906.87 544.21 903.7 558.9 902.1 565.01 900.14 570.56 892.83 579.49 887.15 583.04 882.74 585.4 877.6 587.52 871.78 589.43 865.63 591.59 858.87 593.66 851.61 595.71 844.11 598.14 836.21 600.65 827.98 603.27 819.62 606.4 811.03 609.71 802.28 613.2 793.47 617.24 784.55 621.45 775.59 625.82 766.61 630.62 757.61 635.49 748.63 640.31 739.64 645.37 730.68 650.23 721.77 654.73 712.85 659.17 704.17 662.95 695.74 665.99 687.3 668.68 679.08 670.48 671.08 671.36 663.03 671.72 655.18 671.09 647.52 669.5 639.78 667.35 632.19 664.26 624.74 660.31 617.18 655.87 609.73 650.65 602.37 644.74 594.88 638.49 587.46 631.67 580.11 624.38 572.63 616.9 565.22 609.07 557.9 600.97 550.47 592.83 543.17 584.51 536.02 576.07 528.86 567.69 521.93 559.24 515.29 550.78 508.75 542.42 502.59 534.06 496.88 525.71 491.4 517.49 486.45 509.27 482.09 501.07 478.03 492.98 474.6 484.88 471.83 476.77 469.35 468.74 467.49 460.67 466.24 452.57 465.14 444.52 464.55 436.4 464.41 428.23 464.23 420.08 464.36 411.85 464.74 403.54 464.87 395.25 465.13 386.87 465.5 378.43 465.49 369.98 465.57 361.68 465.74 353.52 465.6 345.37 465.66 337.38 465.95 329.58 466.12 321.79 466.66 314.2 467.64 306.84 468.7 299.51 470.32 292.43 472.51 285.62 474.96 278.85 478.04 272.36 481.74 266.19 485.75 260.07 490.38 254.27 495.57 248.81 501.02 243.4 506.97 238.32 513.35 233.6 519.88 228.9 526.77 224.54 533.94 220.52 541.14 216.48 548.55 212.75 556.12 209.33 563.63 205.83 571.26 202.6 578.98 199.61 586.59 196.49 594.28 193.56 602.03 190.82 609.67 187.87 617.4 185.06 625.21 182.39 632.92 179.46 640.75 176.63 648.71 173.91 656.59 170.91 664.64 168.02 672.84 165.26 681.01 162.26 689.37 159.43 697.92 156.8 706.46 154.01 715.22 151.5 724.19 149.33" stroke-dasharray="2 4" transform="rotate(31.692307692307693, 711, 400)" opacity="0.49"></path><path d="M726.02 158.36C734.7 156.19 743.35 154.5 751.93 153.29 760.51 152.17 769.01 151.61 777.4 151.62 785.75 151.82 793.95 152.63 801.94 154.04 809.85 155.69 817.5 157.95 824.81 160.8 831.98 163.9 838.74 167.57 845.02 171.78 851.08 176.2 856.61 181.12 861.53 186.49 866.2 192.04 870.25 197.99 873.67 204.31 876.87 210.73 879.5 217.48 881.59 224.49 883.65 231.56 885.35 238.88 886.78 246.38 888.49 253.9 890.18 261.6 892.02 269.43 894.48 277.26 897.33 285.22 900.67 293.27 904.89 301.31 909.73 309.44 915.18 317.65 921.46 325.85 928.21 334.12 935.27 342.46 942.72 350.78 950.07 359.17 957.03 367.62 963.64 376.06 969.32 384.56 973.78 393.1 977.16 401.65 978.93 410.23 978.94 418.83 977.6 427.44 974.58 435.85 970.11 444.05 964.75 452.25 958.41 460.22 951.43 467.94 944.35 475.64 937.16 483.07 930.12 490.2 923.69 497.28 917.75 504.05 912.42 510.46 908.01 516.8 904.25 522.78 901.09 528.35 897.82 536.39 893.52 550.23 891.62 556.04 889.64 561.36 883.06 570.12 878.08 573.72 872 577.25 856.17 583.83 846.62 587.16 839.85 589.75 832.66 592.42 825.1 595.18 817.4 598.41 809.43 601.8 801.24 605.35 792.99 609.38 784.58 613.56 776.06 617.85 767.53 622.53 758.93 627.25 750.3 631.9 741.66 636.76 733.01 641.4 724.36 645.71 715.71 649.95 707.26 653.57 699.01 656.49 690.76 659.1 682.69 660.88 674.8 661.79 666.88 662.24 659.12 661.77 651.51 660.39 643.83 658.51 636.28 655.74 628.84 652.14 621.31 648.09 613.87 643.29 606.51 637.83 599.04 632.02 591.63 625.65 584.31 618.8 576.88 611.76 569.53 604.35 562.28 596.64 554.98 588.86 547.81 580.88 540.84 572.75 533.89 564.65 527.19 556.45 520.8 548.21 514.55 540.05 508.7 531.86 503.3 523.67 498.15 515.58 493.52 507.49 489.48 499.41 485.74 491.43 482.59 483.44 480.08 475.45 477.84 467.53 476.18 459.59 475.09 451.63 474.15 443.71 473.66 435.76 473.6 427.76 473.48 419.8 473.65 411.77 474.05 403.7 474.2 395.64 474.47 387.53 474.84 379.38 474.84 371.23 474.91 363.23 475.07 355.4 474.92 347.57 474.95 339.92 475.2 332.47 475.31 325.03 475.76 317.8 476.62 310.81 477.54 303.83 478.97 297.1 480.95 290.65 483.14 284.22 485.94 278.07 489.34 272.23 493.03 266.43 497.31 260.93 502.15 255.75 507.26 250.6 512.87 245.78 518.92 241.28 525.15 236.79 531.74 232.61 538.64 228.75 545.62 224.85 552.82 221.23 560.21 217.9 567.59 214.48 575.1 211.3 582.72 208.34 590.26 205.24 597.89 202.32 605.59 199.58 613.2 196.63 620.89 193.81 628.66 191.12 636.34 188.19 644.13 185.35 652.01 182.63 659.83 179.64 667.78 176.77 675.86 174.03 683.91 171.07 692.11 168.27 700.47 165.69 708.82 162.95 717.33 160.49 726.02 158.36" stroke-dasharray="4 3" transform="rotate(34.33333333333333, 711, 400)" opacity="0.84"></path><path d="M726.91 167.38C735.29 165.26 743.59 163.59 751.78 162.38 759.96 161.25 768.02 160.66 775.91 160.61 783.77 160.73 791.44 161.42 798.85 162.69 806.18 164.18 813.21 166.25 819.89 168.88 826.42 171.74 832.54 175.16 838.19 179.08 843.64 183.22 848.58 187.84 852.97 192.9 857.16 198.13 860.79 203.76 863.87 209.75 866.83 215.86 869.31 222.28 871.36 228.98 873.47 235.75 875.32 242.77 877.01 249.98 879.03 257.22 881.12 264.65 883.39 272.21 886.29 279.79 889.58 287.49 893.33 295.29 897.89 303.09 902.99 310.98 908.61 318.95 914.93 326.9 921.62 334.94 928.52 343.02 935.7 351.1 942.7 359.24 949.28 367.41 955.47 375.59 960.76 383.81 964.88 392.05 968 400.29 969.62 408.55 969.61 416.81 968.35 425.08 965.55 433.14 961.37 440.98 956.37 448.81 950.42 456.4 943.81 463.74 937.06 471.06 930.14 478.1 923.27 484.84 916.9 491.54 910.91 497.93 905.42 503.96 900.75 509.95 896.65 515.58 893.1 520.82 889.16 528.41 883.67 541.53 881.4 547.08 876.17 556.56 863.26 568.23 856.72 571.58 851.92 574.02 846.56 576.41 840.69 578.78 834.61 581.51 828.09 584.31 821.18 587.2 814.14 590.51 806.78 593.96 799.17 597.54 791.49 601.55 783.6 605.68 775.57 609.88 767.5 614.44 759.32 619 751.07 623.48 742.81 628.13 734.48 632.57 726.12 636.68 717.76 640.74 709.55 644.2 701.5 647 693.45 649.52 685.54 651.27 677.78 652.22 669.99 652.74 662.33 652.41 654.79 651.23 647.19 649.59 639.7 647.12 632.29 643.87 624.82 640.19 617.41 635.8 610.08 630.76 602.67 625.39 595.33 619.47 588.06 613.07 580.73 606.46 573.5 599.47 566.38 592.18 559.25 584.79 552.28 577.17 545.52 569.38 538.82 561.59 532.4 553.68 526.31 545.7 520.38 537.77 514.85 529.8 509.8 521.81 504.98 513.89 500.69 505.97 496.97 498.05 493.54 490.21 490.68 482.36 488.42 474.51 486.41 466.73 484.94 458.94 484.01 451.14 483.2 443.38 482.81 435.6 482.82 427.8 482.76 420.02 482.95 412.21 483.37 404.38 483.53 396.56 483.81 388.71 484.17 380.84 484.18 372.98 484.25 365.28 484.4 357.77 484.26 350.26 484.26 342.93 484.47 335.82 484.53 328.71 484.91 321.82 485.65 315.17 486.44 308.53 487.7 302.13 489.47 296.01 491.43 289.9 493.96 284.07 497.06 278.53 500.42 273.01 504.36 267.79 508.85 262.87 513.59 257.97 518.84 253.36 524.53 249.07 530.42 244.76 536.69 240.74 543.28 237.01 549.98 233.23 556.93 229.71 564.09 226.45 571.27 223.1 578.61 219.96 586.07 217.03 593.5 213.95 601.02 211.03 608.62 208.28 616.16 205.33 623.77 202.51 631.45 199.8 639.07 196.87 646.78 194.03 654.56 191.31 662.29 188.34 670.13 185.49 678.06 182.78 685.97 179.86 693.99 177.11 702.14 174.57 710.27 171.89 718.53 169.47 726.91 167.38" stroke-dasharray="3 2" transform="rotate(36.97435897435898, 711, 400)" opacity="0.96"></path><path d="M726.82 176.41C734.87 174.33 742.8 172.68 750.59 171.48 758.36 170.35 765.97 169.73 773.37 169.62 780.74 169.66 787.87 170.25 794.73 171.38 801.51 172.71 807.96 174.6 814.04 177.02 820.01 179.65 825.55 182.81 830.64 186.46 835.58 190.31 840.04 194.63 843.99 199.38 847.81 204.29 851.14 209.6 854.01 215.25 856.82 221.03 859.26 227.13 861.37 233.5 863.61 239.96 865.68 246.65 867.67 253.55 870.03 260.5 872.52 267.63 875.22 274.9 878.52 282.19 882.2 289.62 886.32 297.14 891.15 304.68 896.44 312.3 902.17 320 908.48 327.7 915.06 335.47 921.75 343.28 928.63 351.1 935.28 358.96 941.46 366.85 947.25 374.74 952.16 382.66 955.96 390.59 958.83 398.52 960.31 406.46 960.27 414.38 959.11 422.3 956.5 430 952.61 437.48 947.95 444.95 942.38 452.18 936.15 459.15 929.74 466.1 923.1 472.77 916.44 479.15 910.17 485.49 904.19 491.53 898.6 497.22 893.73 502.88 889.34 508.2 885.44 513.15 880.9 520.34 874.22 532.84 871.51 538.19 866.05 547.53 854.1 559.41 848.25 562.95 843.98 565.51 839.19 568.04 833.91 570.56 828.46 573.42 822.56 576.33 816.27 579.32 809.85 582.7 803.09 586.19 796.05 589.78 788.93 593.75 781.57 597.82 774.02 601.93 766.44 606.35 758.7 610.75 750.84 615.05 742.97 619.51 735 623.74 726.94 627.66 718.88 631.52 710.93 634.82 703.11 637.51 695.27 639.95 687.55 641.66 679.93 642.63 672.3 643.22 664.75 643.01 657.31 642.02 649.82 640.61 642.41 638.41 635.08 635.48 627.69 632.16 620.37 628.16 613.12 623.53 605.81 618.59 598.57 613.11 591.43 607.15 584.25 600.99 577.18 594.43 570.25 587.56 563.34 580.57 556.61 573.34 550.12 565.91 543.72 558.46 537.61 550.87 531.85 543.19 526.26 535.53 521.09 527.81 516.39 520.06 511.93 512.36 507.98 504.64 504.58 496.91 501.45 489.25 498.87 481.57 496.86 473.91 495.06 466.29 493.78 458.67 492.99 451.05 492.3 443.47 492 435.88 492.07 428.29 492.05 420.71 492.27 413.13 492.7 405.54 492.87 397.96 493.15 390.37 493.51 382.78 493.52 375.2 493.6 367.8 493.74 360.59 493.6 353.38 493.59 346.38 493.77 339.58 493.79 332.79 494.1 326.22 494.75 319.89 495.41 313.56 496.52 307.48 498.09 301.66 499.83 295.85 502.1 290.31 504.9 285.05 507.95 279.8 511.55 274.82 515.67 270.14 520.04 265.45 524.91 261.04 530.23 256.92 535.75 252.78 541.66 248.9 547.91 245.28 554.28 241.61 560.94 238.18 567.82 234.98 574.75 231.67 581.86 228.57 589.11 225.65 596.36 222.59 603.72 219.68 611.16 216.92 618.57 213.97 626.06 211.14 633.61 208.43 641.12 205.5 648.71 202.67 656.35 199.95 663.96 197.01 671.65 194.19 679.41 191.51 687.15 188.63 694.98 185.93 702.88 183.43 710.78 180.82 718.76 178.46 726.82 176.41" stroke-dasharray="7 1" transform="rotate(39.61538461538462, 711, 400)" opacity="0.32"></path><path d="M725.74 185.43C733.45 183.4 741.01 181.78 748.38 180.59 755.74 179.46 762.9 178.81 769.82 178.65 776.71 178.62 783.34 179.11 789.67 180.11 795.94 181.3 801.86 183.01 807.42 185.22 815.4 189.09 829.11 199.5 834.78 205.94 838.33 210.54 841.47 215.52 844.23 220.84 847 226.29 849.48 232.05 851.73 238.08 854.15 244.2 856.49 250.56 858.81 257.13 861.53 263.76 864.4 270.57 867.5 277.53 871.17 284.52 875.19 291.65 879.6 298.88 884.64 306.12 890.07 313.46 895.83 320.87 902.08 328.28 908.51 335.77 914.96 343.29 921.52 350.82 927.8 358.39 933.59 365.98 938.98 373.57 943.52 381.18 947.01 388.79 949.65 396.4 950.99 404.01 950.94 411.58 949.85 419.16 947.43 426.51 943.83 433.64 939.5 440.75 934.3 447.63 928.44 454.24 922.38 460.84 916.04 467.17 909.62 473.2 903.49 479.21 897.56 484.92 891.94 490.31 886.91 495.67 882.3 500.7 878.12 505.4 873.03 512.24 865.21 524.23 862.02 529.42 856.13 538.67 844.67 550.8 839.35 554.52 833.35 558.53 818.85 566.97 810.44 571.54 804.6 574.97 798.4 578.48 791.9 582.06 785.33 585.99 778.49 589.97 771.42 593.98 764.33 598.26 757.03 602.5 749.58 606.62 742.11 610.87 734.5 614.91 726.77 618.63 719.04 622.31 711.37 625.45 703.78 628.02 696.19 630.37 688.67 632.04 681.23 633.02 673.78 633.67 666.39 633.58 659.07 632.75 651.73 631.55 644.44 629.62 637.23 626.99 629.97 624.01 622.78 620.37 615.66 616.14 608.5 611.62 601.43 606.57 594.46 601.05 587.49 595.32 580.64 589.21 573.95 582.76 567.31 576.19 560.88 569.36 554.69 562.32 548.62 555.24 542.86 548 537.46 540.64 532.24 533.29 527.44 525.85 523.1 518.37 518.99 510.92 515.39 503.44 512.31 495.94 509.48 488.49 507.17 481.02 505.39 473.56 503.8 466.14 502.69 458.72 502.04 451.31 501.45 443.93 501.23 436.54 501.35 429.17 501.37 421.82 501.61 414.46 502.03 407.12 502.21 399.78 502.49 392.46 502.84 385.15 502.86 377.85 502.94 370.73 503.09 363.82 502.94 356.91 502.93 350.2 503.09 343.72 503.08 337.23 503.34 330.96 503.9 324.93 504.94 316 509.34 299.4 512.88 291.75 515.62 286.74 518.88 281.99 522.64 277.51 526.65 273.02 531.13 268.79 536.05 264.82 541.18 260.82 546.71 257.06 552.58 253.54 558.6 249.96 564.91 246.6 571.46 243.45 578.09 240.19 584.92 237.11 591.91 234.21 598.92 231.16 606.06 228.26 613.29 225.5 620.52 222.55 627.83 219.71 635.2 217 642.55 214.08 649.96 211.26 657.43 208.55 664.87 205.64 672.38 202.85 679.93 200.21 687.47 197.39 695.06 194.74 702.7 192.29 710.34 189.74 718.03 187.43 725.74 185.43" stroke-dasharray="7 1" transform="rotate(42.256410256410255, 711, 400)" opacity="0.35"></path><path d="M723.74 194.46C731.1 192.48 738.27 190.89 745.23 189.71 752.18 188.59 758.91 187.92 765.38 187.7 771.81 187.61 777.98 188.01 783.83 188.89 792.35 190.7 807.54 197.02 814.12 201.47 820.2 206.63 830.42 219.21 834.69 226.52 837.5 231.63 840.1 237.05 842.53 242.73 845.19 248.51 847.81 254.53 850.48 260.76 853.53 267.05 856.76 273.53 860.22 280.15 864.21 286.82 868.52 293.63 873.16 300.54 878.34 307.47 883.84 314.5 889.59 321.6 895.72 328.71 901.95 335.89 908.13 343.1 914.36 350.33 920.27 357.59 925.67 364.86 930.67 372.14 934.85 379.44 938.05 386.72 940.46 394 941.68 401.27 941.6 408.5 940.6 415.73 938.36 422.74 935.02 429.52 931.01 436.29 926.17 442.82 920.69 449.1 914.98 455.36 908.96 461.36 902.8 467.07 896.85 472.77 891.01 478.18 885.4 483.29 880.29 488.38 875.52 493.16 871.11 497.64 865.54 504.17 856.65 515.73 852.97 520.8 846.5 530.02 835.15 542.41 830.19 546.3 824.71 550.47 811.51 559.2 803.84 563.87 798.51 567.31 792.83 570.82 786.83 574.38 780.77 578.25 774.42 582.14 767.83 586.04 761.2 590.17 754.35 594.24 747.3 598.18 740.24 602.24 733.01 606.07 725.62 609.61 718.23 613.1 710.86 616.09 703.54 618.54 696.22 620.79 688.93 622.42 681.7 623.41 674.46 624.1 667.26 624.11 660.12 623.43 652.96 622.42 645.84 620.73 638.79 618.39 631.72 615.73 624.71 612.44 617.77 608.6 610.83 604.47 603.98 599.84 597.24 594.75 590.53 589.46 583.95 583.78 577.56 577.77 571.24 571.63 565.13 565.21 559.3 558.57 553.59 551.88 548.2 545 543.18 538 538.35 530.98 533.92 523.87 529.95 516.68 526.21 509.52 522.94 502.31 520.17 495.07 517.63 487.87 515.58 480.64 514.02 473.41 512.62 466.22 511.67 459.02 511.14 451.84 510.65 444.68 510.5 437.52 510.65 430.38 510.7 423.26 510.95 416.15 511.38 409.06 511.56 401.98 511.83 394.92 512.18 387.89 512.2 380.86 512.29 374.03 512.43 367.41 512.3 360.78 512.29 354.37 512.43 348.17 512.5 338.97 513.98 321.72 515.62 313.68 517.85 305.88 524.91 291.52 529.79 284.95 533.42 280.63 537.52 276.56 542.04 272.73 546.77 268.85 551.89 265.2 557.36 261.77 562.99 258.26 568.92 254.96 575.11 251.85 581.39 248.63 587.89 245.58 594.56 242.69 601.28 239.66 608.14 236.76 615.1 233.99 622.09 231.05 629.16 228.22 636.3 225.51 643.44 222.6 650.63 219.8 657.87 217.11 665.1 214.24 672.38 211.49 679.68 208.89 686.99 206.13 694.32 203.53 701.67 201.14 709.02 198.66 716.39 196.41 723.74 194.46" stroke-dasharray="5 6" transform="rotate(44.8974358974359, 711, 400)" opacity="0.97"></path><path d="M720.96 203.48C727.95 201.56 734.74 200.01 741.3 198.84 747.85 197.73 754.15 197.04 760.2 196.78 769.08 196.79 785.3 199.3 792.55 201.82 799.39 205.03 811.28 213.85 816.38 219.39 821.2 225.51 829.81 239.62 833.86 247.49 836.76 252.91 839.69 258.58 842.68 264.46 846.06 270.4 849.61 276.53 853.39 282.81 857.64 289.14 862.16 295.6 866.96 302.18 872.23 308.78 877.73 315.48 883.4 322.25 889.38 329.04 895.37 335.9 901.26 342.79 907.14 349.69 912.67 356.63 917.68 363.58 922.3 370.53 926.15 377.49 929.06 384.44 931.26 391.39 932.35 398.32 932.26 405.2 931.34 412.09 929.28 418.76 926.19 425.2 922.49 431.63 918 437.84 912.89 443.79 907.54 449.73 901.84 455.42 895.96 460.84 890.22 466.25 884.53 471.39 878.98 476.24 873.84 481.09 868.97 485.65 864.39 489.93 858.44 496.2 848.59 507.4 844.43 512.38 837.26 521.59 825.69 534.26 820.97 538.29 815.85 542.6 803.68 551.55 796.64 556.28 791.75 559.73 786.52 563.22 780.98 566.74 775.38 570.53 769.5 574.33 763.34 578.1 757.16 582.07 750.74 585.97 744.1 589.73 737.45 593.59 730.6 597.23 723.56 600.58 716.52 603.89 709.48 606.73 702.44 609.06 695.41 611.22 688.4 612.8 681.41 613.79 674.42 614.51 667.45 614.61 660.52 614.07 653.59 613.23 646.7 611.76 639.87 609.69 633.03 607.32 626.26 604.37 619.57 600.89 612.89 597.15 606.31 592.92 599.86 588.26 593.45 583.39 587.2 578.14 581.15 572.56 575.18 566.85 569.45 560.86 564 554.63 558.68 548.34 553.69 541.85 549.06 535.22 544.62 528.57 540.58 521.79 536.98 514.94 533.59 508.09 530.65 501.18 528.18 494.23 525.92 487.31 524.11 480.35 522.76 473.39 521.54 466.45 520.72 459.5 520.3 452.57 519.9 445.65 519.8 438.74 519.98 431.85 520.05 424.98 520.31 418.12 520.73 411.29 520.91 404.47 521.17 397.68 521.51 390.93 521.55 384.18 521.64 377.63 521.78 371.28 521.66 364.94 521.66 358.8 521.78 352.87 521.83 344.09 523.1 327.61 524.53 319.94 526.48 312.49 532.75 298.73 537.13 292.42 542.25 286.29 554.91 275.06 562.31 269.93 567.52 266.49 573.04 263.24 578.83 260.17 584.73 256.98 590.85 253.95 597.16 251.08 603.54 248.06 610.07 245.17 616.72 242.4 623.4 239.48 630.18 236.66 637.04 233.95 643.9 231.07 650.83 228.29 657.8 225.63 664.77 222.8 671.78 220.1 678.8 217.54 685.82 214.84 692.86 212.31 699.9 209.99 706.93 207.57 713.96 205.38 720.96 203.48" stroke-dasharray="2 7" transform="rotate(47.53846153846154, 711, 400)" opacity="0.08"></path><path d="M717.55 212.51C724.17 210.64 730.58 209.13 736.75 207.98 745.88 206.53 762.8 205.8 770.55 206.57 777.95 207.96 791.18 213.12 797.02 216.84 802.55 221.19 812.39 231.93 816.84 238.24 819.89 242.67 822.85 247.39 825.77 252.37 828.93 257.44 832.14 262.75 835.44 268.26 839.1 273.84 842.93 279.61 846.96 285.54 851.41 291.51 856.09 297.63 860.98 303.85 866.26 310.11 871.71 316.46 877.26 322.89 883.03 329.34 888.76 335.86 894.33 342.41 899.85 348.98 905 355.58 909.64 362.19 913.89 368.81 917.4 375.43 920.05 382.04 922.05 388.65 923.03 395.24 922.93 401.78 922.08 408.32 920.18 414.65 917.34 420.76 913.94 426.87 909.79 432.76 905.03 438.41 900.04 444.04 894.68 449.44 889.09 454.59 883.6 459.73 878.08 464.62 872.64 469.25 867.53 473.87 862.62 478.23 857.93 482.34 851.69 488.38 841.02 499.29 836.41 504.2 832.39 509 824.62 517.86 820.57 522.04 816.46 526.34 806.97 534.91 801.46 539.29 795.57 544.03 782.09 553.95 774.53 559.14 769.35 562.83 763.88 566.52 758.14 570.16 752.38 573.98 746.36 577.7 740.12 581.28 733.86 584.95 727.39 588.39 720.72 591.56 714.04 594.69 707.34 597.37 700.62 599.59 693.91 601.65 687.18 603.18 680.48 604.16 673.77 604.91 667.08 605.07 660.42 604.66 653.76 603.98 647.14 602.72 640.58 600.89 634.03 598.8 627.54 596.16 621.15 593.03 614.79 589.65 608.53 585.82 602.42 581.55 596.37 577.11 590.48 572.28 584.81 567.13 579.23 561.85 573.9 556.28 568.85 550.48 563.94 544.59 559.36 538.51 555.13 532.27 551.09 525.99 547.43 519.59 544.19 513.09 541.14 506.58 538.52 500 536.35 493.37 534.34 486.74 532.75 480.08 531.59 473.41 530.53 466.75 529.85 460.08 529.52 453.41 529.19 446.76 529.14 440.12 529.34 433.5 529.42 426.89 529.68 420.29 530.08 413.74 530.26 407.19 530.52 400.67 530.85 394.19 530.89 387.72 530.98 381.45 531.14 375.37 531.03 366.37 531.19 349.37 531.64 341.4 532.28 333.63 535.23 319.16 537.69 312.47 540.76 305.95 549.26 293.95 554.66 288.43 560.71 283.03 574.81 273.02 582.72 268.38 588.2 265.23 593.91 262.23 599.82 259.36 605.81 256.36 611.97 253.49 618.25 250.73 624.59 247.82 631.03 245.02 637.55 242.33 644.1 239.48 650.71 236.73 657.36 234.11 664.02 231.33 670.72 228.68 677.42 226.18 684.14 223.55 690.85 221.08 697.55 218.82 704.25 216.47 710.92 214.35 717.55 212.51" stroke-dasharray="5 5" transform="rotate(50.179487179487175, 711, 400)" opacity="0.24"></path><path d="M713.73 221.53C719.99 219.72 726.03 218.25 731.83 217.13 740.41 215.69 756.3 214.84 763.57 215.47 768.32 216.14 772.79 217.22 776.98 218.69 785.35 222.04 792.72 226.97 799.18 233.3 805.93 240.12 812.22 248.23 818.3 257.4 825.37 266.91 832.84 277.32 840.91 288.38 850.41 299.65 860.6 311.45 871.13 323.58 876.66 329.67 882.1 335.84 887.34 342.04 892.5 348.26 897.27 354.51 901.53 360.78 905.43 367.05 908.63 373.33 911.02 379.6 912.83 385.86 913.71 392.11 913.59 398.31 912.81 404.51 911.07 410.51 908.47 416.3 905.35 422.09 901.53 427.67 897.13 433.03 892.48 438.38 887.47 443.51 882.2 448.4 876.97 453.29 871.66 457.95 866.38 462.37 856.63 471.21 847.52 479.15 839.23 486.18 832.44 493.35 826.18 499.77 820.14 505.53 814.96 511.69 809.34 517.45 803.02 522.91 796.86 529.11 789.62 535.26 781.25 541.38 777.03 544.78 772.51 548.18 767.72 551.56 762.89 555.16 757.79 558.72 752.43 562.22 747.05 565.87 741.41 569.42 735.55 572.82 729.67 576.29 723.58 579.55 717.27 582.53 710.97 585.48 704.61 588.02 698.23 590.12 691.86 592.08 685.46 593.56 679.06 594.52 672.68 595.29 666.3 595.51 659.95 595.21 653.61 594.67 647.31 593.59 641.06 591.99 628.65 588.09 616.56 582.2 605.02 574.64 593.78 566.39 583.31 556.75 573.91 546.08 565.08 535.07 557.56 523.3 551.61 511.07 546.33 498.76 542.62 486.13 540.53 473.4 539.62 467.05 539.04 460.67 538.79 454.3 538.52 447.94 538.5 441.58 538.71 435.24 538.81 428.9 539.06 422.59 539.44 416.31 539.61 410.04 539.86 403.79 540.18 397.6 540.28 388.41 540.41 370.99 540.54 362.78 540.57 354.76 541.52 339.71 542.62 332.69 544.41 323.41 547.68 314.93 552.42 307.27 557.76 299.45 564.66 292.34 572.92 285.95 581.76 279.25 591.77 273.11 602.65 267.54 613.87 261.47 625.75 255.82 638 250.64 644.18 247.83 650.43 245.12 656.73 242.54 663.04 239.82 669.39 237.23 675.75 234.78 682.11 232.23 688.48 229.84 694.82 227.64 701.17 225.37 707.48 223.32 713.73 221.53" stroke-dasharray="4 2" transform="rotate(52.82051282051282, 711, 400)" opacity="0.42"></path><path d="M709.75 230.56C721.52 227.07 732.45 224.93 742.46 224.15 752.42 223.67 761.44 224.72 769.49 227.23 777.58 230.21 784.84 234.67 791.4 240.45 798.32 246.68 804.94 254.13 811.48 262.59 818.95 271.38 826.82 281.06 835.21 291.38 844.78 301.91 854.83 312.97 865 324.36 875.55 335.85 885.29 347.6 893.36 359.42 900.07 371.28 903.9 383.16 904.26 394.88 902.24 406.6 896.96 417.59 889.17 427.75 880.41 437.9 870.47 447.22 860.16 455.68 850.6 464.16 841.44 471.84 832.92 478.71 825.7 485.74 818.97 492.12 812.5 497.92 806.89 504.12 801.01 509.97 794.62 515.54 788.49 521.78 781.48 527.95 773.52 534.05 765.52 540.92 756.47 547.73 746.44 554.28 736.34 561.36 725.31 567.9 713.44 573.51 701.56 579.01 689.47 582.84 677.36 584.88 665.3 586.24 653.27 585.58 641.48 583.01 629.82 579.6 618.51 574.35 607.79 567.52 597.39 560.05 587.78 551.25 579.24 541.42 571.24 531.25 564.5 520.29 559.24 508.84 554.56 497.28 551.33 485.36 549.56 473.29 548.02 461.24 547.59 449.08 548.11 436.98 548.15 424.91 548.66 412.89 549.52 401.07 549.37 389.25 549.49 378.15 549.94 367.83 549.74 357.48 550.31 347.87 551.8 339.05 553.33 330.15 556.18 321.98 560.39 314.57 565.09 306.98 571.24 300.05 578.67 293.78 586.64 287.19 595.75 281.13 605.74 275.59 616.09 269.6 627.11 264.01 638.54 258.88 650.15 253.23 662.03 248.02 673.98 243.37 685.98 238.33 697.98 233.98 709.75 230.56" stroke-dasharray="6 6" transform="rotate(55.46153846153846, 711, 400)" opacity="0.44"></path><path d="M705.84 239.58C716.89 236.22 727.18 234.13 736.63 233.32 746.07 232.76 754.68 233.62 762.49 235.85 770.37 238.48 777.61 242.49 784.32 247.73 791.43 253.39 798.36 260.2 805.31 267.97 813.1 276.06 821.25 285 829.8 294.58 839.32 304.35 849.12 314.66 858.85 325.32 868.76 336.07 877.77 347.09 885.13 358.19 891.21 369.34 894.65 380.52 894.92 391.58 893.1 402.63 888.29 413.01 881.15 422.64 873.07 432.27 863.78 441.15 853.96 449.25 844.68 457.39 835.59 464.83 826.97 471.56 819.44 478.45 812.33 484.79 805.5 490.62 799.48 496.82 793.31 502.73 786.8 508.37 780.61 514.61 773.73 520.76 766.06 526.79 758.42 533.49 749.86 540.07 740.42 546.34 730.94 553.06 720.59 559.22 709.45 564.48 698.3 569.65 686.95 573.26 675.58 575.23 664.26 576.61 653 576.15 642 573.93 631.14 570.99 620.67 566.33 610.82 560.2 601.29 553.48 592.56 545.48 584.88 536.47 577.69 527.14 571.71 517.01 567.09 506.34 562.97 495.56 560.17 484.38 558.69 473.02 557.35 461.64 557 450.13 557.52 438.65 557.56 427.19 558.03 415.76 558.85 404.51 558.73 393.26 558.88 382.69 559.35 372.84 559.18 362.96 559.7 353.78 561.04 345.32 562.36 336.78 564.86 328.91 568.57 321.72 572.68 314.37 578.12 307.61 584.77 301.44 591.89 294.98 600.11 289.01 609.2 283.52 618.64 277.62 628.76 272.11 639.34 267.05 650.1 261.53 661.17 256.45 672.33 251.93 683.55 247.07 694.79 242.88 705.84 239.58" stroke-dasharray="5 3" transform="rotate(58.1025641025641, 711, 400)" opacity="0.43"></path><path d="M702.25 248.61C712.6 245.38 722.29 243.35 731.25 242.52 740.22 241.89 748.51 242.58 756.13 244.54 763.88 246.84 771.13 250.43 778.01 255.17 785.29 260.26 792.49 266.45 799.75 273.56 807.75 280.95 816.06 289.16 824.65 298 833.98 307.03 843.44 316.58 852.65 326.49 861.89 336.5 870.16 346.78 876.84 357.17 882.32 367.6 885.39 378.09 885.59 388.48 883.94 398.88 879.59 408.67 873.08 417.79 865.67 426.9 857.03 435.37 847.77 443.14 838.84 450.96 829.94 458.16 821.34 464.75 813.63 471.51 806.24 477.79 799.13 483.62 792.75 489.81 786.31 495.73 779.66 501.4 773.36 507.59 766.52 513.68 759.07 519.6 751.69 526.1 743.54 532.42 734.63 538.4 725.7 544.75 715.98 550.54 705.56 555.46 695.13 560.29 684.52 563.69 673.93 565.57 663.39 566.97 652.94 566.68 642.77 564.78 632.77 562.25 623.17 558.15 614.21 552.66 605.56 546.65 597.71 539.43 590.87 531.23 584.47 522.71 579.19 513.41 575.17 503.55 571.56 493.55 569.14 483.14 567.9 472.49 566.73 461.82 566.45 450.99 566.95 440.16 566.98 429.33 567.41 418.52 568.19 407.84 568.1 397.17 568.28 387.12 568.76 377.74 568.63 368.33 569.13 359.55 570.36 351.44 571.5 343.25 573.69 335.66 576.97 328.7 580.54 321.57 585.34 314.98 591.24 308.93 597.55 302.61 604.91 296.73 613.11 291.31 621.63 285.52 630.85 280.12 640.56 275.15 650.43 269.78 660.65 264.84 671.01 260.47 681.43 255.79 691.91 251.77 702.25 248.61" stroke-dasharray="2 6" transform="rotate(60.743589743589745, 711, 400)" opacity="0.43"></path><path d="M699.21 257.63C708.88 254.55 718 252.58 726.53 251.73 735.08 251.05 743.09 251.59 750.58 253.3 758.21 255.3 765.5 258.48 772.52 262.74 779.93 267.31 787.32 272.9 794.79 279.36 802.88 286.08 811.21 293.57 819.69 301.69 828.73 309.96 837.74 318.77 846.38 327.94 854.93 337.19 862.47 346.74 868.48 356.42 873.4 366.13 876.12 375.93 876.25 385.68 874.78 395.43 870.85 404.64 864.94 413.26 858.2 421.89 850.22 429.94 841.55 437.39 833.07 444.9 824.45 451.88 815.98 458.32 808.22 464.93 800.69 471.13 793.38 476.95 786.73 483.08 780.07 488.97 773.28 494.62 766.85 500.73 760.03 506.7 752.74 512.48 745.55 518.74 737.74 524.79 729.29 530.46 720.85 536.43 711.73 541.85 702 546.43 692.27 550.94 682.42 554.12 672.62 555.92 662.87 557.3 653.26 557.16 643.96 555.54 634.82 553.39 626.11 549.8 618.05 544.93 610.27 539.59 603.26 533.11 597.23 525.69 591.57 517.97 586.94 509.48 583.48 500.42 580.32 491.22 578.22 481.58 577.19 471.68 576.16 461.74 575.93 451.6 576.4 441.43 576.4 431.26 576.79 421.06 577.52 410.98 577.46 400.89 577.67 391.36 578.18 382.45 578.1 373.5 578.59 365.13 579.73 357.36 580.73 349.51 582.66 342.2 585.56 335.46 588.67 328.56 592.87 322.14 598.09 316.22 603.64 310.05 610.17 304.29 617.53 298.97 625.15 293.31 633.48 288.02 642.3 283.17 651.29 277.97 660.65 273.2 670.21 268.98 679.82 264.5 689.54 260.66 699.21 257.63" stroke-dasharray="6 6" transform="rotate(63.38461538461539, 711, 400)" opacity="0.91"></path><path d="M696.9 266.66C705.91 263.73 714.51 261.83 722.64 260.97 730.79 260.26 738.55 260.66 745.92 262.13 753.44 263.86 760.73 266.67 767.85 270.47 775.31 274.54 782.8 279.56 790.35 285.4 798.41 291.46 806.62 298.26 814.88 305.66 823.52 313.21 832.01 321.27 840.03 329.71 847.86 338.22 854.69 347.03 860.06 356 864.45 365 866.84 374.12 866.92 383.23 865.6 392.34 862.08 400.99 856.75 409.12 850.65 417.27 843.34 424.92 835.3 432.06 827.32 439.26 819.08 446 810.85 452.29 803.17 458.74 795.61 464.83 788.23 470.59 781.4 476.63 774.58 482.44 767.71 488.02 761.17 494 754.35 499.82 747.2 505.41 740.17 511.41 732.65 517.16 724.63 522.51 716.62 528.11 708.06 533.15 699.01 537.41 689.95 541.6 680.84 544.56 671.84 546.27 662.89 547.62 654.11 547.6 645.69 546.24 637.4 544.43 629.58 541.3 622.39 537 615.45 532.29 609.26 526.51 603.98 519.84 599 512.89 594.97 505.19 591.99 496.93 589.23 488.52 587.42 479.66 586.55 470.51 585.63 461.31 585.42 451.89 585.85 442.39 585.82 432.89 586.17 423.33 586.86 413.84 586.82 404.34 587.06 395.34 587.59 386.89 587.58 378.41 588.07 370.44 589.15 363.01 590.05 355.51 591.77 348.48 594.34 341.97 597.04 335.31 600.72 329.08 605.32 323.3 610.18 317.3 615.94 311.68 622.49 306.47 629.26 300.97 636.72 295.83 644.69 291.12 652.8 286.11 661.32 281.52 670.09 277.47 678.9 273.2 687.89 269.54 696.9 266.66" stroke-dasharray="4 6" transform="rotate(66.02564102564104, 711, 400)" opacity="0.55"></path><path d="M695.46 275.68C703.85 272.9 711.94 271.09 719.68 270.23 727.46 269.49 734.97 269.77 742.21 271.04 749.58 272.51 756.83 274.97 763.96 278.35 771.39 281.95 778.86 286.43 786.37 291.67 794.26 297.1 802.23 303.24 810.15 309.94 818.31 316.78 826.22 324.12 833.57 331.83 840.69 339.61 846.82 347.7 851.58 355.98 855.46 364.28 857.55 372.72 857.58 381.2 856.41 389.67 853.27 397.77 848.5 405.43 843.02 413.1 836.38 420.36 828.98 427.18 821.56 434.06 813.77 440.56 805.9 446.67 798.41 452.92 790.95 458.88 783.61 464.54 776.72 470.44 769.84 476.14 762.94 481.6 756.35 487.4 749.56 493.02 742.55 498.39 735.66 504.1 728.41 509.53 720.79 514.55 713.19 519.77 705.17 524.45 696.76 528.38 688.35 532.26 679.97 535.01 671.76 536.61 663.58 537.93 655.64 538 648.07 536.87 640.62 535.36 633.64 532.66 627.29 528.88 621.14 524.75 615.71 519.63 611.12 513.67 606.76 507.47 603.26 500.54 600.7 493.05 598.29 485.43 596.72 477.34 595.98 468.94 595.14 460.49 594.94 451.79 595.31 442.98 595.25 434.16 595.56 425.24 596.19 416.35 596.18 407.46 596.45 399 597 391.01 597.05 383.01 597.57 375.44 598.6 368.36 599.43 361.2 600.98 354.47 603.28 348.19 605.64 341.79 608.86 335.76 612.92 330.16 617.15 324.35 622.22 318.9 628.02 313.83 634 308.52 640.63 303.55 647.8 298.99 655.07 294.19 662.77 289.8 670.77 285.93 678.81 281.89 687.08 278.42 695.46 275.68" stroke-dasharray="6 7" transform="rotate(68.66666666666666, 711, 400)" opacity="0.38"></path><path d="M695 284.71C702.77 282.09 710.37 280.37 717.73 279.52 725.13 278.76 732.37 278.94 739.43 280.01 746.62 281.25 753.74 283.39 760.79 286.37 768.09 289.53 775.42 293.5 782.75 298.18 790.37 303.02 797.98 308.51 805.45 314.55 813.05 320.7 820.32 327.34 826.99 334.35 833.4 341.41 838.85 348.8 843.03 356.39 846.45 364 848.26 371.78 848.25 379.63 847.22 387.48 844.44 395.03 840.19 402.22 835.3 409.41 829.33 416.27 822.59 422.77 815.76 429.32 808.5 435.55 801.06 441.46 793.88 447.5 786.65 453.28 779.46 458.79 772.63 464.51 765.79 470.04 758.96 475.34 752.38 480.91 745.68 486.3 738.83 491.42 732.11 496.81 725.13 501.91 717.9 506.59 710.69 511.43 703.18 515.75 695.39 519.36 687.61 522.92 679.94 525.46 672.49 526.96 665.07 528.22 657.92 528.37 651.17 527.43 644.51 526.19 638.34 523.87 632.77 520.57 627.35 516.99 622.61 512.48 618.63 507.2 614.83 501.7 611.8 495.51 609.6 488.77 607.48 481.91 606.1 474.59 605.45 466.93 604.67 459.23 604.46 451.26 604.77 443.13 604.68 435 604.94 426.74 605.53 418.46 605.54 410.18 605.84 402.26 606.41 394.76 606.53 387.23 607.07 380.08 608.08 373.35 608.86 366.56 610.28 360.14 612.36 354.11 614.44 347.98 617.28 342.19 620.85 336.77 624.54 331.19 628.99 325.93 634.12 321.03 639.37 315.93 645.25 311.16 651.65 306.79 658.13 302.22 665.07 298.04 672.34 294.37 679.64 290.56 687.22 287.29 695 284.71" stroke-dasharray="4 3" transform="rotate(71.3076923076923, 711, 400)" opacity="0.56"></path><path d="M695.52 293.73C702.71 291.28 709.81 289.65 716.79 288.82 723.79 288.06 730.72 288.15 737.55 289.05 744.48 290.08 751.39 291.94 758.26 294.54 765.31 297.3 772.38 300.8 779.41 304.94 786.63 309.22 793.78 314.11 800.72 319.51 807.7 325 814.3 330.96 820.29 337.29 825.99 343.66 830.79 350.36 834.43 357.28 837.4 364.21 838.96 371.34 838.91 378.58 838.01 385.82 835.57 392.82 831.81 399.53 827.5 406.25 822.17 412.7 816.1 418.85 809.89 425.05 803.21 431 796.29 436.67 789.51 442.45 782.61 448.01 775.71 453.33 769.05 458.83 762.37 464.14 755.7 469.23 749.23 474.54 742.68 479.65 736.05 484.49 729.53 489.54 722.85 494.29 716.01 498.62 709.19 503.08 702.18 507.03 695 510.33 687.82 513.59 680.83 515.92 674.1 517.3 667.4 518.51 661 518.71 655.02 517.95 646.4 515.95 632.01 507.04 626.51 500.42 623.19 495.58 620.56 490.1 618.66 484.08 616.78 477.96 615.55 471.38 614.96 464.46 614.23 457.5 613.99 450.24 614.23 442.81 614.12 435.37 614.33 427.77 614.87 420.11 614.89 412.45 615.22 405.09 615.81 398.07 615.99 391.03 616.57 384.31 617.56 377.96 618.33 371.55 619.65 365.45 621.55 359.71 623.4 353.87 625.92 348.34 629.09 343.15 632.32 337.81 636.22 332.78 640.74 328.08 645.35 323.22 650.55 318.68 656.25 314.52 662.01 310.19 668.22 306.25 674.81 302.79 681.41 299.21 688.34 296.15 695.52 293.73" stroke-dasharray="7 7" transform="rotate(73.94871794871796, 711, 400)" opacity="0.82"></path><path d="M697.01 302.76C703.62 300.48 710.23 298.95 716.78 298.15 723.36 297.4 729.93 297.42 736.45 298.16 743.05 299.01 749.66 300.6 756.23 302.86 762.93 305.25 769.63 308.3 776.24 311.95 782.97 315.7 789.57 320.01 795.91 324.81 802.23 329.68 808.14 334.99 813.43 340.66 818.45 346.36 822.63 352.39 825.76 358.66 828.33 364.93 829.65 371.42 829.58 378.05 828.8 384.68 826.67 391.14 823.38 397.36 819.61 403.6 814.91 409.63 809.51 415.42 803.93 421.25 797.87 426.88 791.52 432.27 785.24 437.76 778.77 443.06 772.24 448.14 765.89 453.37 759.48 458.43 753.07 463.26 746.81 468.26 740.5 473.06 734.15 477.59 727.9 482.27 721.54 486.66 715.11 490.64 708.71 494.72 702.19 498.32 695.6 501.31 689.01 504.26 682.66 506.38 676.62 507.66 667.75 508.91 652.02 506.77 645.41 503.47 639.46 499.12 630.65 486.72 627.84 478.99 626.16 473.57 625.05 467.71 624.5 461.51 623.79 455.27 623.53 448.73 623.7 441.98 623.55 435.23 623.71 428.29 624.2 421.26 624.25 414.23 624.59 407.43 625.2 400.91 625.44 394.38 626.05 388.11 627.04 382.15 628.43 373.27 633.62 356.83 637.57 349.27 640.41 344.22 643.85 339.44 647.85 334.98 651.89 330.39 656.48 326.09 661.55 322.17 666.65 318.11 672.21 314.42 678.14 311.18 684.09 307.85 690.4 305.01 697.01 302.76" stroke-dasharray="6 1" transform="rotate(76.58974358974359, 711, 400)" opacity="0.88"></path><path d="M699.37 311.78C705.41 309.68 711.51 308.26 717.61 307.5 723.73 306.77 729.88 306.73 736 307.34 748.44 308.8 761.01 312.9 773.14 319.19 785.47 325.8 796.99 334.42 806.42 344.47 810.78 349.53 814.38 354.92 817.04 360.55 819.23 366.18 820.34 372.05 820.24 378.07 819.57 384.1 817.73 390.01 814.89 395.74 811.63 401.48 807.53 407.08 802.78 412.47 792.82 423.38 781.17 433.73 768.98 443.21 757.21 453.15 745.09 462.48 733.04 470.71 727.12 475.02 721.14 479.03 715.15 482.66 709.18 486.34 703.17 489.59 697.16 492.28 688.28 495.9 672.1 499.19 664.94 498.83 655.76 497.38 648.36 492.92 643.17 486 638.06 478.59 635 469.04 634.04 458.07 633.35 452.53 633.06 446.68 633.16 440.62 632.98 434.55 633.1 428.28 633.54 421.88 633.6 415.48 633.95 409.26 634.57 403.26 634.87 397.25 635.52 391.45 636.5 385.9 637.88 374.71 641.13 364.35 646.25 355.15 651.28 345.58 658.46 336.97 667.46 329.75 671.98 325.97 676.93 322.55 682.27 319.55 687.61 316.48 693.32 313.86 699.37 311.78" stroke-dasharray="5 2" transform="rotate(79.23076923076924, 711, 400)" opacity="0.59"></path><path d="M702.45 320.81C713.4 316.97 724.76 315.64 736.04 316.58 747.48 317.74 759.01 321.23 770 326.68 781.02 332.36 791.14 339.87 799.25 348.72 806.44 357.65 810.67 367.78 810.91 378.64 809.33 389.5 803.95 400.07 795.92 410 787.22 420.05 776.85 429.67 765.81 438.51 754.99 447.7 743.74 456.31 732.57 463.86 721.59 471.75 710.46 478.47 699.58 483.26 688.69 487.96 679.01 489.89 670.88 489.22 662.79 488.09 656.34 484.33 651.84 478.38 647.31 472.06 644.54 463.78 643.59 454.14 642.05 444.38 641.8 433.48 642.87 421.96 642.71 410.44 643.77 399.4 645.93 389.22 647.34 378.94 650.39 369.34 655.04 360.77 659.52 351.93 665.88 343.94 673.87 337.25 681.87 330.26 691.49 324.57 702.45 320.81" stroke-dasharray="6 6" transform="rotate(81.87179487179486, 711, 400)" opacity="0.42"></path><path d="M706.06 329.83C715.88 326.38 726.14 325.13 736.36 325.88 746.67 326.78 757 329.72 766.72 334.39 776.37 339.22 785.07 345.68 791.91 353.39 797.96 361.16 801.45 370.07 801.57 379.73 800.28 389.4 795.75 398.93 788.92 407.97 781.47 417.11 772.42 425.9 762.64 434.02 752.93 442.39 742.73 450.21 732.57 457.02 722.55 464.07 712.45 470.02 702.7 474.23 692.95 478.37 684.41 480.1 677.32 479.57 670.22 478.72 664.6 475.58 660.66 470.52 656.62 465.19 654.08 458.1 653.12 449.74 651.62 441.28 651.29 431.72 652.21 421.49 652.12 411.25 653.2 401.33 655.3 392.09 656.75 382.78 659.63 374.02 663.87 366.15 667.9 358.09 673.54 350.79 680.64 344.69 687.69 338.36 696.23 333.23 706.06 329.83" stroke-dasharray="2 3" transform="rotate(84.51282051282051, 711, 400)" opacity="0.83"></path><path d="M709.98 338.86C718.65 335.79 727.73 334.65 736.76 335.24 745.83 335.92 754.84 338.36 763.21 342.31 771.45 346.36 778.75 351.86 784.39 358.48 789.38 365.14 792.21 372.86 792.24 381.33 791.2 389.81 787.46 398.26 781.75 406.35 775.52 414.51 767.81 422.4 759.36 429.71 750.88 437.19 741.87 444.15 732.87 450.18 723.93 456.37 714.95 461.56 706.35 465.21 697.74 468.8 690.27 470.31 684.11 469.9 675.46 467.97 664.76 455.02 662.61 444.89 661.16 437.68 660.77 429.42 661.54 420.48 661.52 411.54 662.6 402.77 664.61 394.53 666.09 386.24 668.8 378.38 672.66 371.3 676.31 364.07 681.32 357.53 687.58 352.06 693.78 346.44 701.3 341.88 709.98 338.86" stroke-dasharray="3 2" transform="rotate(87.15384615384615, 711, 400)" opacity="0.84"></path><path d="M713.96 347.88C721.47 345.22 729.3 344.2 737.04 344.65 744.79 345.15 752.41 347.15 759.39 350.43 766.22 353.77 772.18 358.35 776.69 363.94 780.71 369.55 782.94 376.11 782.9 383.4 782.09 390.69 779.08 398.02 774.42 405.09 769.35 412.21 762.97 419.14 755.88 425.55 748.71 432.07 741 438.13 733.24 443.35 725.51 448.66 717.72 453.1 710.28 456.18 699.61 459.88 683.6 458.7 678.41 454.17 675.2 450.54 673.05 445.6 672.05 439.62 670.68 433.59 670.25 426.62 670.88 418.97 670.91 411.32 671.96 403.73 673.85 396.55 675.32 389.33 677.85 382.45 681.34 376.22 684.64 369.89 689.07 364.16 694.53 359.37 699.93 354.47 706.45 350.51 713.96 347.88" stroke-dasharray="4 7" transform="rotate(89.7948717948718, 711, 400)" opacity="0.14"></path><path d="M717.76 356.91C730.38 352.41 743.87 353.43 755.18 358.73 765.95 364.15 773.22 373.69 773.56 385.88 771.84 398.06 763.48 410.69 752.11 421.51 740.38 432.6 726.78 442.08 714.26 447.16 701.73 452.13 692.43 451.24 687.18 445.72 681.41 439.86 678.82 429.69 680.21 416.98 679.93 404.26 683.45 391.5 689.82 380.93 695.55 370.15 705.13 361.31 717.76 356.91" stroke-dasharray="1 4" transform="rotate(92.43589743589745, 711, 400)" opacity="0.79"></path><path d="M721.13 365.93C731.31 362.29 741.9 363.03 750.52 367.18 758.73 371.38 764.12 378.91 764.23 388.7 763.03 398.49 756.74 408.75 747.98 417.56 738.91 426.52 728.13 434.11 718.03 438.13 707.92 442.09 700.26 441.43 695.77 437.14 690.88 432.66 688.54 424.71 689.55 414.57 689.46 404.43 692.59 394.08 698.02 385.44 703 376.7 710.95 369.52 721.13 365.93" stroke-dasharray="7 5" transform="rotate(95.07692307692308, 711, 400)" opacity="0.15"></path><path d="M723.88 374.96C731.56 372.19 739.29 372.7 745.38 375.76 751.22 378.84 754.94 384.44 754.89 391.81 754.13 399.19 749.72 406.98 743.44 413.67 736.93 420.43 729 426.13 721.37 429.11 710.74 431.82 699.2 422.29 698.88 411.8 698.92 404.22 701.53 396.38 705.89 389.79 709.97 383.15 716.2 377.69 723.88 374.96" stroke-dasharray="4 2" transform="rotate(97.71794871794872, 711, 400)" opacity="0.24"></path><path d="M725.83 383.98C736.11 380.24 745.45 385.24 745.56 395.13 744.41 405 734.3 416.16 724.06 420.08 713.8 423.95 707.16 418.79 708.22 408.73 708.12 398.67 715.53 387.66 725.83 383.98" stroke-dasharray="3 3" transform="rotate(100.35897435897435, 711, 400)" opacity="0.97"></path></g></svg>